solid OpenSCAD_Model
  facet normal -1 0 0
    outer loop
      vertex 0 0 0
      vertex 0 85.48 31.4
      vertex 0 85.48 0
    endloop
  endfacet
  facet normal -1 -0 0
    outer loop
      vertex 0 85.48 31.4
      vertex 0 0 0
      vertex 0 0 31.4
    endloop
  endfacet
  facet normal -0 0 1
    outer loop
      vertex 10.13 16.14 31.4
      vertex 117.63 15.34 31.4
      vertex 117.63 16.14 31.4
    endloop
  endfacet
  facet normal 0 0 1
    outer loop
      vertex 117.63 15.34 31.4
      vertex 10.13 16.14 31.4
      vertex 10.13 15.34 31.4
    endloop
  endfacet
  facet normal -0 0 1
    outer loop
      vertex 10.13 25.14 31.4
      vertex 117.63 24.34 31.4
      vertex 117.63 25.14 31.4
    endloop
  endfacet
  facet normal 0 0 1
    outer loop
      vertex 117.63 24.34 31.4
      vertex 10.13 25.14 31.4
      vertex 10.13 24.34 31.4
    endloop
  endfacet
  facet normal -0 0 1
    outer loop
      vertex 10.13 34.14 31.4
      vertex 117.63 33.34 31.4
      vertex 117.63 34.14 31.4
    endloop
  endfacet
  facet normal 0 0 1
    outer loop
      vertex 117.63 33.34 31.4
      vertex 10.13 34.14 31.4
      vertex 10.13 33.34 31.4
    endloop
  endfacet
  facet normal -0 0 1
    outer loop
      vertex 10.13 43.14 31.4
      vertex 117.63 42.34 31.4
      vertex 117.63 43.14 31.4
    endloop
  endfacet
  facet normal 0 0 1
    outer loop
      vertex 117.63 42.34 31.4
      vertex 10.13 43.14 31.4
      vertex 10.13 42.34 31.4
    endloop
  endfacet
  facet normal -0 0 1
    outer loop
      vertex 10.13 52.14 31.4
      vertex 117.63 51.34 31.4
      vertex 117.63 52.14 31.4
    endloop
  endfacet
  facet normal 0 0 1
    outer loop
      vertex 117.63 51.34 31.4
      vertex 10.13 52.14 31.4
      vertex 10.13 51.34 31.4
    endloop
  endfacet
  facet normal -0 0 1
    outer loop
      vertex 10.13 61.14 31.4
      vertex 117.63 60.34 31.4
      vertex 117.63 61.14 31.4
    endloop
  endfacet
  facet normal 0 0 1
    outer loop
      vertex 117.63 60.34 31.4
      vertex 10.13 61.14 31.4
      vertex 10.13 60.34 31.4
    endloop
  endfacet
  facet normal -0 0 1
    outer loop
      vertex 10.13 70.14 31.4
      vertex 117.63 69.34 31.4
      vertex 117.63 70.14 31.4
    endloop
  endfacet
  facet normal 0 0 1
    outer loop
      vertex 117.63 69.34 31.4
      vertex 10.13 70.14 31.4
      vertex 10.13 69.34 31.4
    endloop
  endfacet
  facet normal 0 0 1
    outer loop
      vertex 117.63 70.14 31.4
      vertex 127.76 85.48 31.4
      vertex 117.63 78.34 31.4
    endloop
  endfacet
  facet normal 0 0 1
    outer loop
      vertex 127.76 85.48 31.4
      vertex 10.13 78.34 31.4
      vertex 117.63 78.34 31.4
    endloop
  endfacet
  facet normal 0 0 1
    outer loop
      vertex 0 85.48 31.4
      vertex 10.13 70.14 31.4
      vertex 10.13 78.34 31.4
    endloop
  endfacet
  facet normal 0 0 1
    outer loop
      vertex 10.13 70.14 31.4
      vertex 0 85.48 31.4
      vertex 10.13 69.34 31.4
    endloop
  endfacet
  facet normal 0 0 1
    outer loop
      vertex 10.13 69.34 31.4
      vertex 0 85.48 31.4
      vertex 10.13 61.14 31.4
    endloop
  endfacet
  facet normal 0 0 1
    outer loop
      vertex 10.13 61.14 31.4
      vertex 0 85.48 31.4
      vertex 10.13 60.34 31.4
    endloop
  endfacet
  facet normal 0 0 1
    outer loop
      vertex 10.13 60.34 31.4
      vertex 0 85.48 31.4
      vertex 10.13 52.14 31.4
    endloop
  endfacet
  facet normal 0 0 1
    outer loop
      vertex 10.13 52.14 31.4
      vertex 0 85.48 31.4
      vertex 10.13 51.34 31.4
    endloop
  endfacet
  facet normal 0 0 1
    outer loop
      vertex 10.13 51.34 31.4
      vertex 0 85.48 31.4
      vertex 10.13 43.14 31.4
    endloop
  endfacet
  facet normal 0 0 1
    outer loop
      vertex 10.13 43.14 31.4
      vertex 0 85.48 31.4
      vertex 10.13 42.34 31.4
    endloop
  endfacet
  facet normal 0 0 1
    outer loop
      vertex 0 0 31.4
      vertex 10.13 42.34 31.4
      vertex 0 85.48 31.4
    endloop
  endfacet
  facet normal 0 0 1
    outer loop
      vertex 10.13 42.34 31.4
      vertex 0 0 31.4
      vertex 10.13 34.14 31.4
    endloop
  endfacet
  facet normal 0 0 1
    outer loop
      vertex 10.13 34.14 31.4
      vertex 0 0 31.4
      vertex 10.13 33.34 31.4
    endloop
  endfacet
  facet normal 0 0 1
    outer loop
      vertex 10.13 33.34 31.4
      vertex 0 0 31.4
      vertex 10.13 25.14 31.4
    endloop
  endfacet
  facet normal 0 0 1
    outer loop
      vertex 10.13 25.14 31.4
      vertex 0 0 31.4
      vertex 10.13 24.34 31.4
    endloop
  endfacet
  facet normal 0 0 1
    outer loop
      vertex 10.13 24.34 31.4
      vertex 0 0 31.4
      vertex 10.13 16.14 31.4
    endloop
  endfacet
  facet normal 0 0 1
    outer loop
      vertex 10.13 16.14 31.4
      vertex 0 0 31.4
      vertex 10.13 15.34 31.4
    endloop
  endfacet
  facet normal -0 0 1
    outer loop
      vertex 0 85.48 31.4
      vertex 10.13 78.34 31.4
      vertex 127.76 85.48 31.4
    endloop
  endfacet
  facet normal 0 0 1
    outer loop
      vertex 117.63 69.34 31.4
      vertex 127.76 85.48 31.4
      vertex 117.63 70.14 31.4
    endloop
  endfacet
  facet normal 0 0 1
    outer loop
      vertex 117.63 61.14 31.4
      vertex 127.76 85.48 31.4
      vertex 117.63 69.34 31.4
    endloop
  endfacet
  facet normal 0 0 1
    outer loop
      vertex 117.63 60.34 31.4
      vertex 127.76 85.48 31.4
      vertex 117.63 61.14 31.4
    endloop
  endfacet
  facet normal 0 0 1
    outer loop
      vertex 117.63 52.14 31.4
      vertex 127.76 85.48 31.4
      vertex 117.63 60.34 31.4
    endloop
  endfacet
  facet normal 0 0 1
    outer loop
      vertex 117.63 51.34 31.4
      vertex 127.76 85.48 31.4
      vertex 117.63 52.14 31.4
    endloop
  endfacet
  facet normal 0 0 1
    outer loop
      vertex 117.63 43.14 31.4
      vertex 127.76 85.48 31.4
      vertex 117.63 51.34 31.4
    endloop
  endfacet
  facet normal 0 0 1
    outer loop
      vertex 127.76 85.48 31.4
      vertex 117.63 43.14 31.4
      vertex 127.76 0 31.4
    endloop
  endfacet
  facet normal -0 0 1
    outer loop
      vertex 117.63 42.34 31.4
      vertex 127.76 0 31.4
      vertex 117.63 43.14 31.4
    endloop
  endfacet
  facet normal -0 0 1
    outer loop
      vertex 117.63 34.14 31.4
      vertex 127.76 0 31.4
      vertex 117.63 42.34 31.4
    endloop
  endfacet
  facet normal -0 0 1
    outer loop
      vertex 117.63 33.34 31.4
      vertex 127.76 0 31.4
      vertex 117.63 34.14 31.4
    endloop
  endfacet
  facet normal -0 0 1
    outer loop
      vertex 117.63 25.14 31.4
      vertex 127.76 0 31.4
      vertex 117.63 33.34 31.4
    endloop
  endfacet
  facet normal -0 0 1
    outer loop
      vertex 117.63 24.34 31.4
      vertex 127.76 0 31.4
      vertex 117.63 25.14 31.4
    endloop
  endfacet
  facet normal -0 0 1
    outer loop
      vertex 117.63 16.14 31.4
      vertex 127.76 0 31.4
      vertex 117.63 24.34 31.4
    endloop
  endfacet
  facet normal -0 0 1
    outer loop
      vertex 117.63 15.34 31.4
      vertex 127.76 0 31.4
      vertex 117.63 16.14 31.4
    endloop
  endfacet
  facet normal -0 0 1
    outer loop
      vertex 117.63 7.14 31.4
      vertex 127.76 0 31.4
      vertex 117.63 15.34 31.4
    endloop
  endfacet
  facet normal -0 0 1
    outer loop
      vertex 10.13 7.14 31.4
      vertex 127.76 0 31.4
      vertex 117.63 7.14 31.4
    endloop
  endfacet
  facet normal 0 0 1
    outer loop
      vertex 10.13 7.14 31.4
      vertex 0 0 31.4
      vertex 127.76 0 31.4
    endloop
  endfacet
  facet normal 0 0 1
    outer loop
      vertex 10.13 15.34 31.4
      vertex 0 0 31.4
      vertex 10.13 7.14 31.4
    endloop
  endfacet
  facet normal 1 -0 0
    outer loop
      vertex 127.76 0 31.4
      vertex 127.76 85.48 0
      vertex 127.76 85.48 31.4
    endloop
  endfacet
  facet normal 1 0 0
    outer loop
      vertex 127.76 85.48 0
      vertex 127.76 0 31.4
      vertex 127.76 0 0
    endloop
  endfacet
  facet normal 0 0 -1
    outer loop
      vertex 0 0 0
      vertex 127.76 85.48 0
      vertex 127.76 0 0
    endloop
  endfacet
  facet normal -0 0 -1
    outer loop
      vertex 127.76 85.48 0
      vertex 0 0 0
      vertex 0 85.48 0
    endloop
  endfacet
  facet normal 0 -1 0
    outer loop
      vertex 0 0 0
      vertex 127.76 0 31.4
      vertex 0 0 31.4
    endloop
  endfacet
  facet normal 0 -1 -0
    outer loop
      vertex 127.76 0 31.4
      vertex 0 0 0
      vertex 127.76 0 0
    endloop
  endfacet
  facet normal 0 1 -0
    outer loop
      vertex 127.76 85.48 0
      vertex 0 85.48 31.4
      vertex 127.76 85.48 31.4
    endloop
  endfacet
  facet normal 0 1 0
    outer loop
      vertex 0 85.48 31.4
      vertex 127.76 85.48 0
      vertex 0 85.48 0
    endloop
  endfacet
  facet normal 1 -0 0
    outer loop
      vertex 10.13 70.14 31.4
      vertex 10.13 78.34 4.55
      vertex 10.13 78.34 31.4
    endloop
  endfacet
  facet normal 1 0 0
    outer loop
      vertex 10.13 78.34 4.55
      vertex 10.13 70.14 31.4
      vertex 10.13 70.14 4.55
    endloop
  endfacet
  facet normal -1 0 0
    outer loop
      vertex 117.63 70.14 4.55
      vertex 117.63 78.34 31.4
      vertex 117.63 78.34 4.55
    endloop
  endfacet
  facet normal -1 -0 0
    outer loop
      vertex 117.63 78.34 31.4
      vertex 117.63 70.14 4.55
      vertex 117.63 70.14 31.4
    endloop
  endfacet
  facet normal -0 0 1
    outer loop
      vertex 10.13 78.34 4.55
      vertex 117.63 70.14 4.55
      vertex 117.63 78.34 4.55
    endloop
  endfacet
  facet normal 0 0 1
    outer loop
      vertex 117.63 70.14 4.55
      vertex 10.13 78.34 4.55
      vertex 10.13 70.14 4.55
    endloop
  endfacet
  facet normal 0 1 -0
    outer loop
      vertex 117.63 70.14 4.55
      vertex 10.13 70.14 31.4
      vertex 117.63 70.14 31.4
    endloop
  endfacet
  facet normal 0 1 0
    outer loop
      vertex 10.13 70.14 31.4
      vertex 117.63 70.14 4.55
      vertex 10.13 70.14 4.55
    endloop
  endfacet
  facet normal 0 -1 0
    outer loop
      vertex 10.13 78.34 4.55
      vertex 117.63 78.34 31.4
      vertex 10.13 78.34 31.4
    endloop
  endfacet
  facet normal 0 -1 -0
    outer loop
      vertex 117.63 78.34 31.4
      vertex 10.13 78.34 4.55
      vertex 117.63 78.34 4.55
    endloop
  endfacet
  facet normal 1 -0 0
    outer loop
      vertex 10.13 61.14 31.4
      vertex 10.13 69.34 4.55
      vertex 10.13 69.34 31.4
    endloop
  endfacet
  facet normal 1 0 0
    outer loop
      vertex 10.13 69.34 4.55
      vertex 10.13 61.14 31.4
      vertex 10.13 61.14 4.55
    endloop
  endfacet
  facet normal -1 0 0
    outer loop
      vertex 117.63 61.14 4.55
      vertex 117.63 69.34 31.4
      vertex 117.63 69.34 4.55
    endloop
  endfacet
  facet normal -1 -0 0
    outer loop
      vertex 117.63 69.34 31.4
      vertex 117.63 61.14 4.55
      vertex 117.63 61.14 31.4
    endloop
  endfacet
  facet normal 0 -1 0
    outer loop
      vertex 10.13 69.34 4.55
      vertex 117.63 69.34 31.4
      vertex 10.13 69.34 31.4
    endloop
  endfacet
  facet normal 0 -1 -0
    outer loop
      vertex 117.63 69.34 31.4
      vertex 10.13 69.34 4.55
      vertex 117.63 69.34 4.55
    endloop
  endfacet
  facet normal -0 0 1
    outer loop
      vertex 10.13 69.34 4.55
      vertex 117.63 61.14 4.55
      vertex 117.63 69.34 4.55
    endloop
  endfacet
  facet normal 0 0 1
    outer loop
      vertex 117.63 61.14 4.55
      vertex 10.13 69.34 4.55
      vertex 10.13 61.14 4.55
    endloop
  endfacet
  facet normal 0 1 -0
    outer loop
      vertex 117.63 61.14 4.55
      vertex 10.13 61.14 31.4
      vertex 117.63 61.14 31.4
    endloop
  endfacet
  facet normal 0 1 0
    outer loop
      vertex 10.13 61.14 31.4
      vertex 117.63 61.14 4.55
      vertex 10.13 61.14 4.55
    endloop
  endfacet
  facet normal 1 -0 0
    outer loop
      vertex 10.13 52.14 31.4
      vertex 10.13 60.34 4.55
      vertex 10.13 60.34 31.4
    endloop
  endfacet
  facet normal 1 0 0
    outer loop
      vertex 10.13 60.34 4.55
      vertex 10.13 52.14 31.4
      vertex 10.13 52.14 4.55
    endloop
  endfacet
  facet normal -1 0 0
    outer loop
      vertex 117.63 52.14 4.55
      vertex 117.63 60.34 31.4
      vertex 117.63 60.34 4.55
    endloop
  endfacet
  facet normal -1 -0 0
    outer loop
      vertex 117.63 60.34 31.4
      vertex 117.63 52.14 4.55
      vertex 117.63 52.14 31.4
    endloop
  endfacet
  facet normal 0 -1 0
    outer loop
      vertex 10.13 60.34 4.55
      vertex 117.63 60.34 31.4
      vertex 10.13 60.34 31.4
    endloop
  endfacet
  facet normal 0 -1 -0
    outer loop
      vertex 117.63 60.34 31.4
      vertex 10.13 60.34 4.55
      vertex 117.63 60.34 4.55
    endloop
  endfacet
  facet normal -0 0 1
    outer loop
      vertex 10.13 60.34 4.55
      vertex 117.63 52.14 4.55
      vertex 117.63 60.34 4.55
    endloop
  endfacet
  facet normal 0 0 1
    outer loop
      vertex 117.63 52.14 4.55
      vertex 10.13 60.34 4.55
      vertex 10.13 52.14 4.55
    endloop
  endfacet
  facet normal 0 1 -0
    outer loop
      vertex 117.63 52.14 4.55
      vertex 10.13 52.14 31.4
      vertex 117.63 52.14 31.4
    endloop
  endfacet
  facet normal 0 1 0
    outer loop
      vertex 10.13 52.14 31.4
      vertex 117.63 52.14 4.55
      vertex 10.13 52.14 4.55
    endloop
  endfacet
  facet normal 1 -0 0
    outer loop
      vertex 10.13 43.14 31.4
      vertex 10.13 51.34 4.55
      vertex 10.13 51.34 31.4
    endloop
  endfacet
  facet normal 1 0 0
    outer loop
      vertex 10.13 51.34 4.55
      vertex 10.13 43.14 31.4
      vertex 10.13 43.14 4.55
    endloop
  endfacet
  facet normal -1 0 0
    outer loop
      vertex 117.63 43.14 4.55
      vertex 117.63 51.34 31.4
      vertex 117.63 51.34 4.55
    endloop
  endfacet
  facet normal -1 -0 0
    outer loop
      vertex 117.63 51.34 31.4
      vertex 117.63 43.14 4.55
      vertex 117.63 43.14 31.4
    endloop
  endfacet
  facet normal 0 -1 0
    outer loop
      vertex 10.13 51.34 4.55
      vertex 117.63 51.34 31.4
      vertex 10.13 51.34 31.4
    endloop
  endfacet
  facet normal 0 -1 -0
    outer loop
      vertex 117.63 51.34 31.4
      vertex 10.13 51.34 4.55
      vertex 117.63 51.34 4.55
    endloop
  endfacet
  facet normal -0 0 1
    outer loop
      vertex 10.13 51.34 4.55
      vertex 117.63 43.14 4.55
      vertex 117.63 51.34 4.55
    endloop
  endfacet
  facet normal 0 0 1
    outer loop
      vertex 117.63 43.14 4.55
      vertex 10.13 51.34 4.55
      vertex 10.13 43.14 4.55
    endloop
  endfacet
  facet normal 0 1 -0
    outer loop
      vertex 117.63 43.14 4.55
      vertex 10.13 43.14 31.4
      vertex 117.63 43.14 31.4
    endloop
  endfacet
  facet normal 0 1 0
    outer loop
      vertex 10.13 43.14 31.4
      vertex 117.63 43.14 4.55
      vertex 10.13 43.14 4.55
    endloop
  endfacet
  facet normal 1 -0 0
    outer loop
      vertex 10.13 34.14 31.4
      vertex 10.13 42.34 4.55
      vertex 10.13 42.34 31.4
    endloop
  endfacet
  facet normal 1 0 0
    outer loop
      vertex 10.13 42.34 4.55
      vertex 10.13 34.14 31.4
      vertex 10.13 34.14 4.55
    endloop
  endfacet
  facet normal -1 0 0
    outer loop
      vertex 117.63 34.14 4.55
      vertex 117.63 42.34 31.4
      vertex 117.63 42.34 4.55
    endloop
  endfacet
  facet normal -1 -0 0
    outer loop
      vertex 117.63 42.34 31.4
      vertex 117.63 34.14 4.55
      vertex 117.63 34.14 31.4
    endloop
  endfacet
  facet normal -0 0 1
    outer loop
      vertex 10.13 42.34 4.55
      vertex 117.63 34.14 4.55
      vertex 117.63 42.34 4.55
    endloop
  endfacet
  facet normal 0 0 1
    outer loop
      vertex 117.63 34.14 4.55
      vertex 10.13 42.34 4.55
      vertex 10.13 34.14 4.55
    endloop
  endfacet
  facet normal 0 1 -0
    outer loop
      vertex 117.63 34.14 4.55
      vertex 10.13 34.14 31.4
      vertex 117.63 34.14 31.4
    endloop
  endfacet
  facet normal 0 1 0
    outer loop
      vertex 10.13 34.14 31.4
      vertex 117.63 34.14 4.55
      vertex 10.13 34.14 4.55
    endloop
  endfacet
  facet normal 0 -1 0
    outer loop
      vertex 10.13 42.34 4.55
      vertex 117.63 42.34 31.4
      vertex 10.13 42.34 31.4
    endloop
  endfacet
  facet normal 0 -1 -0
    outer loop
      vertex 117.63 42.34 31.4
      vertex 10.13 42.34 4.55
      vertex 117.63 42.34 4.55
    endloop
  endfacet
  facet normal 1 -0 0
    outer loop
      vertex 10.13 25.14 31.4
      vertex 10.13 33.34 4.55
      vertex 10.13 33.34 31.4
    endloop
  endfacet
  facet normal 1 0 0
    outer loop
      vertex 10.13 33.34 4.55
      vertex 10.13 25.14 31.4
      vertex 10.13 25.14 4.55
    endloop
  endfacet
  facet normal -1 0 0
    outer loop
      vertex 117.63 25.14 4.55
      vertex 117.63 33.34 31.4
      vertex 117.63 33.34 4.55
    endloop
  endfacet
  facet normal -1 -0 0
    outer loop
      vertex 117.63 33.34 31.4
      vertex 117.63 25.14 4.55
      vertex 117.63 25.14 31.4
    endloop
  endfacet
  facet normal 0 -1 0
    outer loop
      vertex 10.13 33.34 4.55
      vertex 117.63 33.34 31.4
      vertex 10.13 33.34 31.4
    endloop
  endfacet
  facet normal 0 -1 -0
    outer loop
      vertex 117.63 33.34 31.4
      vertex 10.13 33.34 4.55
      vertex 117.63 33.34 4.55
    endloop
  endfacet
  facet normal -0 0 1
    outer loop
      vertex 10.13 33.34 4.55
      vertex 117.63 25.14 4.55
      vertex 117.63 33.34 4.55
    endloop
  endfacet
  facet normal 0 0 1
    outer loop
      vertex 117.63 25.14 4.55
      vertex 10.13 33.34 4.55
      vertex 10.13 25.14 4.55
    endloop
  endfacet
  facet normal 0 1 -0
    outer loop
      vertex 117.63 25.14 4.55
      vertex 10.13 25.14 31.4
      vertex 117.63 25.14 31.4
    endloop
  endfacet
  facet normal 0 1 0
    outer loop
      vertex 10.13 25.14 31.4
      vertex 117.63 25.14 4.55
      vertex 10.13 25.14 4.55
    endloop
  endfacet
  facet normal 1 -0 0
    outer loop
      vertex 10.13 16.14 31.4
      vertex 10.13 24.34 4.55
      vertex 10.13 24.34 31.4
    endloop
  endfacet
  facet normal 1 0 0
    outer loop
      vertex 10.13 24.34 4.55
      vertex 10.13 16.14 31.4
      vertex 10.13 16.14 4.55
    endloop
  endfacet
  facet normal -1 0 0
    outer loop
      vertex 117.63 16.14 4.55
      vertex 117.63 24.34 31.4
      vertex 117.63 24.34 4.55
    endloop
  endfacet
  facet normal -1 -0 0
    outer loop
      vertex 117.63 24.34 31.4
      vertex 117.63 16.14 4.55
      vertex 117.63 16.14 31.4
    endloop
  endfacet
  facet normal 0 -1 0
    outer loop
      vertex 10.13 24.34 4.55
      vertex 117.63 24.34 31.4
      vertex 10.13 24.34 31.4
    endloop
  endfacet
  facet normal 0 -1 -0
    outer loop
      vertex 117.63 24.34 31.4
      vertex 10.13 24.34 4.55
      vertex 117.63 24.34 4.55
    endloop
  endfacet
  facet normal -0 0 1
    outer loop
      vertex 10.13 24.34 4.55
      vertex 117.63 16.14 4.55
      vertex 117.63 24.34 4.55
    endloop
  endfacet
  facet normal 0 0 1
    outer loop
      vertex 117.63 16.14 4.55
      vertex 10.13 24.34 4.55
      vertex 10.13 16.14 4.55
    endloop
  endfacet
  facet normal 0 1 -0
    outer loop
      vertex 117.63 16.14 4.55
      vertex 10.13 16.14 31.4
      vertex 117.63 16.14 31.4
    endloop
  endfacet
  facet normal 0 1 0
    outer loop
      vertex 10.13 16.14 31.4
      vertex 117.63 16.14 4.55
      vertex 10.13 16.14 4.55
    endloop
  endfacet
  facet normal 1 -0 0
    outer loop
      vertex 10.13 7.14 31.4
      vertex 10.13 15.34 4.55
      vertex 10.13 15.34 31.4
    endloop
  endfacet
  facet normal 1 0 0
    outer loop
      vertex 10.13 15.34 4.55
      vertex 10.13 7.14 31.4
      vertex 10.13 7.14 4.55
    endloop
  endfacet
  facet normal -1 0 0
    outer loop
      vertex 117.63 7.14 4.55
      vertex 117.63 15.34 31.4
      vertex 117.63 15.34 4.55
    endloop
  endfacet
  facet normal -1 -0 0
    outer loop
      vertex 117.63 15.34 31.4
      vertex 117.63 7.14 4.55
      vertex 117.63 7.14 31.4
    endloop
  endfacet
  facet normal 0 -1 0
    outer loop
      vertex 10.13 15.34 4.55
      vertex 117.63 15.34 31.4
      vertex 10.13 15.34 31.4
    endloop
  endfacet
  facet normal 0 -1 -0
    outer loop
      vertex 117.63 15.34 31.4
      vertex 10.13 15.34 4.55
      vertex 117.63 15.34 4.55
    endloop
  endfacet
  facet normal -0 0 1
    outer loop
      vertex 10.13 15.34 4.55
      vertex 117.63 7.14 4.55
      vertex 117.63 15.34 4.55
    endloop
  endfacet
  facet normal 0 0 1
    outer loop
      vertex 117.63 7.14 4.55
      vertex 10.13 15.34 4.55
      vertex 10.13 7.14 4.55
    endloop
  endfacet
  facet normal 0 1 -0
    outer loop
      vertex 117.63 7.14 4.55
      vertex 10.13 7.14 31.4
      vertex 117.63 7.14 31.4
    endloop
  endfacet
  facet normal 0 1 0
    outer loop
      vertex 10.13 7.14 31.4
      vertex 117.63 7.14 4.55
      vertex 10.13 7.14 4.55
    endloop
  endfacet
endsolid OpenSCAD_Model
