solid OpenSCAD_Model
  facet normal -1 0 0
    outer loop
      vertex 0 0 0
      vertex 0 85.48 31.4
      vertex 0 85.48 0
    endloop
  endfacet
  facet normal -1 -0 0
    outer loop
      vertex 0 85.48 31.4
      vertex 0 0 0
      vertex 0 0 31.4
    endloop
  endfacet
  facet normal 0 0 1
    outer loop
      vertex 127.76 85.48 31.4
      vertex 117.555 78.365 31.4
      vertex 127.76 0 31.4
    endloop
  endfacet
  facet normal 0 0 1
    outer loop
      vertex 127.76 85.48 31.4
      vertex 109.205 78.365 31.4
      vertex 117.555 78.365 31.4
    endloop
  endfacet
  facet normal 0 0 1
    outer loop
      vertex 109.205 78.365 31.4
      vertex 108.555 78.365 31.4
      vertex 109.205 7.115 31.4
    endloop
  endfacet
  facet normal 0 0 1
    outer loop
      vertex 127.76 85.48 31.4
      vertex 108.555 78.365 31.4
      vertex 109.205 78.365 31.4
    endloop
  endfacet
  facet normal 0 0 1
    outer loop
      vertex 127.76 85.48 31.4
      vertex 100.205 78.365 31.4
      vertex 108.555 78.365 31.4
    endloop
  endfacet
  facet normal 0 0 1
    outer loop
      vertex 100.205 78.365 31.4
      vertex 99.555 78.365 31.4
      vertex 100.205 7.115 31.4
    endloop
  endfacet
  facet normal 0 0 1
    outer loop
      vertex 127.76 85.48 31.4
      vertex 99.555 78.365 31.4
      vertex 100.205 78.365 31.4
    endloop
  endfacet
  facet normal 0 0 1
    outer loop
      vertex 127.76 85.48 31.4
      vertex 91.205 78.365 31.4
      vertex 99.555 78.365 31.4
    endloop
  endfacet
  facet normal 0 0 1
    outer loop
      vertex 91.205 78.365 31.4
      vertex 90.555 78.365 31.4
      vertex 91.205 7.115 31.4
    endloop
  endfacet
  facet normal 0 0 1
    outer loop
      vertex 127.76 85.48 31.4
      vertex 90.555 78.365 31.4
      vertex 91.205 78.365 31.4
    endloop
  endfacet
  facet normal 0 0 1
    outer loop
      vertex 127.76 85.48 31.4
      vertex 82.205 78.365 31.4
      vertex 90.555 78.365 31.4
    endloop
  endfacet
  facet normal 0 0 1
    outer loop
      vertex 82.205 78.365 31.4
      vertex 81.555 78.365 31.4
      vertex 82.205 7.115 31.4
    endloop
  endfacet
  facet normal 0 0 1
    outer loop
      vertex 127.76 85.48 31.4
      vertex 81.555 78.365 31.4
      vertex 82.205 78.365 31.4
    endloop
  endfacet
  facet normal 0 0 1
    outer loop
      vertex 127.76 85.48 31.4
      vertex 73.205 78.365 31.4
      vertex 81.555 78.365 31.4
    endloop
  endfacet
  facet normal 0 0 1
    outer loop
      vertex 73.205 78.365 31.4
      vertex 72.555 78.365 31.4
      vertex 73.205 7.115 31.4
    endloop
  endfacet
  facet normal 0 0 1
    outer loop
      vertex 127.76 85.48 31.4
      vertex 72.555 78.365 31.4
      vertex 73.205 78.365 31.4
    endloop
  endfacet
  facet normal 0 0 1
    outer loop
      vertex 127.76 85.48 31.4
      vertex 64.205 78.365 31.4
      vertex 72.555 78.365 31.4
    endloop
  endfacet
  facet normal 0 0 1
    outer loop
      vertex 64.205 78.365 31.4
      vertex 63.555 78.365 31.4
      vertex 64.205 7.115 31.4
    endloop
  endfacet
  facet normal 0 0 1
    outer loop
      vertex 127.76 85.48 31.4
      vertex 63.555 78.365 31.4
      vertex 64.205 78.365 31.4
    endloop
  endfacet
  facet normal -0 0 1
    outer loop
      vertex 0 85.48 31.4
      vertex 63.555 78.365 31.4
      vertex 127.76 85.48 31.4
    endloop
  endfacet
  facet normal 0 0 1
    outer loop
      vertex 55.205 78.365 31.4
      vertex 54.555 78.365 31.4
      vertex 55.205 7.115 31.4
    endloop
  endfacet
  facet normal 0 0 1
    outer loop
      vertex 63.555 78.365 31.4
      vertex 0 85.48 31.4
      vertex 55.205 78.365 31.4
    endloop
  endfacet
  facet normal 0 0 1
    outer loop
      vertex 55.205 78.365 31.4
      vertex 0 85.48 31.4
      vertex 54.555 78.365 31.4
    endloop
  endfacet
  facet normal 0 0 1
    outer loop
      vertex 46.205 78.365 31.4
      vertex 45.555 78.365 31.4
      vertex 46.205 7.115 31.4
    endloop
  endfacet
  facet normal 0 0 1
    outer loop
      vertex 54.555 78.365 31.4
      vertex 0 85.48 31.4
      vertex 46.205 78.365 31.4
    endloop
  endfacet
  facet normal 0 0 1
    outer loop
      vertex 46.205 78.365 31.4
      vertex 0 85.48 31.4
      vertex 45.555 78.365 31.4
    endloop
  endfacet
  facet normal 0 0 1
    outer loop
      vertex 37.205 78.365 31.4
      vertex 36.555 78.365 31.4
      vertex 37.205 7.115 31.4
    endloop
  endfacet
  facet normal 0 0 1
    outer loop
      vertex 45.555 78.365 31.4
      vertex 0 85.48 31.4
      vertex 37.205 78.365 31.4
    endloop
  endfacet
  facet normal 0 0 1
    outer loop
      vertex 37.205 78.365 31.4
      vertex 0 85.48 31.4
      vertex 36.555 78.365 31.4
    endloop
  endfacet
  facet normal 0 0 1
    outer loop
      vertex 28.205 78.365 31.4
      vertex 27.555 78.365 31.4
      vertex 28.205 7.115 31.4
    endloop
  endfacet
  facet normal 0 0 1
    outer loop
      vertex 36.555 78.365 31.4
      vertex 0 85.48 31.4
      vertex 28.205 78.365 31.4
    endloop
  endfacet
  facet normal 0 0 1
    outer loop
      vertex 28.205 78.365 31.4
      vertex 0 85.48 31.4
      vertex 27.555 78.365 31.4
    endloop
  endfacet
  facet normal 0 0 1
    outer loop
      vertex 19.205 78.365 31.4
      vertex 18.555 78.365 31.4
      vertex 19.205 7.115 31.4
    endloop
  endfacet
  facet normal 0 0 1
    outer loop
      vertex 27.555 78.365 31.4
      vertex 0 85.48 31.4
      vertex 19.205 78.365 31.4
    endloop
  endfacet
  facet normal 0 0 1
    outer loop
      vertex 19.205 78.365 31.4
      vertex 0 85.48 31.4
      vertex 18.555 78.365 31.4
    endloop
  endfacet
  facet normal 0 0 1
    outer loop
      vertex 10.205 78.365 31.4
      vertex 0 85.48 31.4
      vertex 10.205 7.115 31.4
    endloop
  endfacet
  facet normal 0 0 1
    outer loop
      vertex 18.555 78.365 31.4
      vertex 0 85.48 31.4
      vertex 10.205 78.365 31.4
    endloop
  endfacet
  facet normal -0 0 1
    outer loop
      vertex 117.555 7.115 31.4
      vertex 127.76 0 31.4
      vertex 117.555 78.365 31.4
    endloop
  endfacet
  facet normal -0 0 1
    outer loop
      vertex 109.205 7.115 31.4
      vertex 127.76 0 31.4
      vertex 117.555 7.115 31.4
    endloop
  endfacet
  facet normal 0 0 1
    outer loop
      vertex 108.555 7.115 31.4
      vertex 109.205 7.115 31.4
      vertex 108.555 78.365 31.4
    endloop
  endfacet
  facet normal -0 0 1
    outer loop
      vertex 108.555 7.115 31.4
      vertex 127.76 0 31.4
      vertex 109.205 7.115 31.4
    endloop
  endfacet
  facet normal -0 0 1
    outer loop
      vertex 100.205 7.115 31.4
      vertex 127.76 0 31.4
      vertex 108.555 7.115 31.4
    endloop
  endfacet
  facet normal 0 0 1
    outer loop
      vertex 99.555 7.115 31.4
      vertex 100.205 7.115 31.4
      vertex 99.555 78.365 31.4
    endloop
  endfacet
  facet normal -0 0 1
    outer loop
      vertex 99.555 7.115 31.4
      vertex 127.76 0 31.4
      vertex 100.205 7.115 31.4
    endloop
  endfacet
  facet normal -0 0 1
    outer loop
      vertex 91.205 7.115 31.4
      vertex 127.76 0 31.4
      vertex 99.555 7.115 31.4
    endloop
  endfacet
  facet normal 0 0 1
    outer loop
      vertex 90.555 7.115 31.4
      vertex 91.205 7.115 31.4
      vertex 90.555 78.365 31.4
    endloop
  endfacet
  facet normal -0 0 1
    outer loop
      vertex 90.555 7.115 31.4
      vertex 127.76 0 31.4
      vertex 91.205 7.115 31.4
    endloop
  endfacet
  facet normal -0 0 1
    outer loop
      vertex 82.205 7.115 31.4
      vertex 127.76 0 31.4
      vertex 90.555 7.115 31.4
    endloop
  endfacet
  facet normal 0 0 1
    outer loop
      vertex 81.555 7.115 31.4
      vertex 82.205 7.115 31.4
      vertex 81.555 78.365 31.4
    endloop
  endfacet
  facet normal -0 0 1
    outer loop
      vertex 81.555 7.115 31.4
      vertex 127.76 0 31.4
      vertex 82.205 7.115 31.4
    endloop
  endfacet
  facet normal -0 0 1
    outer loop
      vertex 73.205 7.115 31.4
      vertex 127.76 0 31.4
      vertex 81.555 7.115 31.4
    endloop
  endfacet
  facet normal 0 0 1
    outer loop
      vertex 72.555 7.115 31.4
      vertex 73.205 7.115 31.4
      vertex 72.555 78.365 31.4
    endloop
  endfacet
  facet normal -0 0 1
    outer loop
      vertex 72.555 7.115 31.4
      vertex 127.76 0 31.4
      vertex 73.205 7.115 31.4
    endloop
  endfacet
  facet normal -0 0 1
    outer loop
      vertex 64.205 7.115 31.4
      vertex 127.76 0 31.4
      vertex 72.555 7.115 31.4
    endloop
  endfacet
  facet normal 0 0 1
    outer loop
      vertex 63.555 7.115 31.4
      vertex 64.205 7.115 31.4
      vertex 63.555 78.365 31.4
    endloop
  endfacet
  facet normal -0 0 1
    outer loop
      vertex 63.555 7.115 31.4
      vertex 127.76 0 31.4
      vertex 64.205 7.115 31.4
    endloop
  endfacet
  facet normal 0 0 1
    outer loop
      vertex 0 0 31.4
      vertex 63.555 7.115 31.4
      vertex 55.205 7.115 31.4
    endloop
  endfacet
  facet normal 0 0 1
    outer loop
      vertex 54.555 7.115 31.4
      vertex 55.205 7.115 31.4
      vertex 54.555 78.365 31.4
    endloop
  endfacet
  facet normal 0 0 1
    outer loop
      vertex 0 0 31.4
      vertex 55.205 7.115 31.4
      vertex 54.555 7.115 31.4
    endloop
  endfacet
  facet normal 0 0 1
    outer loop
      vertex 0 0 31.4
      vertex 54.555 7.115 31.4
      vertex 46.205 7.115 31.4
    endloop
  endfacet
  facet normal 0 0 1
    outer loop
      vertex 45.555 7.115 31.4
      vertex 46.205 7.115 31.4
      vertex 45.555 78.365 31.4
    endloop
  endfacet
  facet normal 0 0 1
    outer loop
      vertex 0 0 31.4
      vertex 46.205 7.115 31.4
      vertex 45.555 7.115 31.4
    endloop
  endfacet
  facet normal 0 0 1
    outer loop
      vertex 0 0 31.4
      vertex 45.555 7.115 31.4
      vertex 37.205 7.115 31.4
    endloop
  endfacet
  facet normal 0 0 1
    outer loop
      vertex 36.555 7.115 31.4
      vertex 37.205 7.115 31.4
      vertex 36.555 78.365 31.4
    endloop
  endfacet
  facet normal 0 0 1
    outer loop
      vertex 0 0 31.4
      vertex 37.205 7.115 31.4
      vertex 36.555 7.115 31.4
    endloop
  endfacet
  facet normal 0 0 1
    outer loop
      vertex 0 0 31.4
      vertex 36.555 7.115 31.4
      vertex 28.205 7.115 31.4
    endloop
  endfacet
  facet normal 0 0 1
    outer loop
      vertex 27.555 7.115 31.4
      vertex 28.205 7.115 31.4
      vertex 27.555 78.365 31.4
    endloop
  endfacet
  facet normal 0 0 1
    outer loop
      vertex 0 0 31.4
      vertex 28.205 7.115 31.4
      vertex 27.555 7.115 31.4
    endloop
  endfacet
  facet normal 0 0 1
    outer loop
      vertex 0 0 31.4
      vertex 27.555 7.115 31.4
      vertex 19.205 7.115 31.4
    endloop
  endfacet
  facet normal 0 0 1
    outer loop
      vertex 18.555 7.115 31.4
      vertex 19.205 7.115 31.4
      vertex 18.555 78.365 31.4
    endloop
  endfacet
  facet normal 0 0 1
    outer loop
      vertex 0 0 31.4
      vertex 19.205 7.115 31.4
      vertex 18.555 7.115 31.4
    endloop
  endfacet
  facet normal 0 0 1
    outer loop
      vertex 0 0 31.4
      vertex 18.555 7.115 31.4
      vertex 10.205 7.115 31.4
    endloop
  endfacet
  facet normal 0 0 1
    outer loop
      vertex 63.555 7.115 31.4
      vertex 0 0 31.4
      vertex 127.76 0 31.4
    endloop
  endfacet
  facet normal 0 0 1
    outer loop
      vertex 0 0 31.4
      vertex 10.205 7.115 31.4
      vertex 0 85.48 31.4
    endloop
  endfacet
  facet normal 1 -0 0
    outer loop
      vertex 127.76 0 31.4
      vertex 127.76 85.48 0
      vertex 127.76 85.48 31.4
    endloop
  endfacet
  facet normal 1 0 0
    outer loop
      vertex 127.76 85.48 0
      vertex 127.76 0 31.4
      vertex 127.76 0 0
    endloop
  endfacet
  facet normal 0 1 -0
    outer loop
      vertex 127.76 85.48 0
      vertex 0 85.48 31.4
      vertex 127.76 85.48 31.4
    endloop
  endfacet
  facet normal 0 1 0
    outer loop
      vertex 0 85.48 31.4
      vertex 127.76 85.48 0
      vertex 0 85.48 0
    endloop
  endfacet
  facet normal 0 0 -1
    outer loop
      vertex 0 0 0
      vertex 127.76 85.48 0
      vertex 127.76 0 0
    endloop
  endfacet
  facet normal -0 0 -1
    outer loop
      vertex 127.76 85.48 0
      vertex 0 0 0
      vertex 0 85.48 0
    endloop
  endfacet
  facet normal 0 -1 0
    outer loop
      vertex 0 0 0
      vertex 127.76 0 31.4
      vertex 0 0 31.4
    endloop
  endfacet
  facet normal 0 -1 -0
    outer loop
      vertex 127.76 0 31.4
      vertex 0 0 0
      vertex 127.76 0 0
    endloop
  endfacet
  facet normal 1 -0 0
    outer loop
      vertex 10.205 7.115 31.4
      vertex 10.205 78.365 4.55
      vertex 10.205 78.365 31.4
    endloop
  endfacet
  facet normal 1 0 0
    outer loop
      vertex 10.205 78.365 4.55
      vertex 10.205 7.115 31.4
      vertex 10.205 7.115 4.55
    endloop
  endfacet
  facet normal -1 0 0
    outer loop
      vertex 18.555 7.115 4.55
      vertex 18.555 78.365 31.4
      vertex 18.555 78.365 4.55
    endloop
  endfacet
  facet normal -1 -0 0
    outer loop
      vertex 18.555 78.365 31.4
      vertex 18.555 7.115 4.55
      vertex 18.555 7.115 31.4
    endloop
  endfacet
  facet normal 0 -1 0
    outer loop
      vertex 10.205 78.365 4.55
      vertex 18.555 78.365 31.4
      vertex 10.205 78.365 31.4
    endloop
  endfacet
  facet normal 0 -1 -0
    outer loop
      vertex 18.555 78.365 31.4
      vertex 10.205 78.365 4.55
      vertex 18.555 78.365 4.55
    endloop
  endfacet
  facet normal -0 0 1
    outer loop
      vertex 10.205 78.365 4.55
      vertex 18.555 7.115 4.55
      vertex 18.555 78.365 4.55
    endloop
  endfacet
  facet normal 0 0 1
    outer loop
      vertex 18.555 7.115 4.55
      vertex 10.205 78.365 4.55
      vertex 10.205 7.115 4.55
    endloop
  endfacet
  facet normal 0 1 -0
    outer loop
      vertex 18.555 7.115 4.55
      vertex 10.205 7.115 31.4
      vertex 18.555 7.115 31.4
    endloop
  endfacet
  facet normal 0 1 0
    outer loop
      vertex 10.205 7.115 31.4
      vertex 18.555 7.115 4.55
      vertex 10.205 7.115 4.55
    endloop
  endfacet
  facet normal 1 -0 0
    outer loop
      vertex 19.205 7.115 31.4
      vertex 19.205 78.365 4.55
      vertex 19.205 78.365 31.4
    endloop
  endfacet
  facet normal 1 0 0
    outer loop
      vertex 19.205 78.365 4.55
      vertex 19.205 7.115 31.4
      vertex 19.205 7.115 4.55
    endloop
  endfacet
  facet normal -1 0 0
    outer loop
      vertex 27.555 7.115 4.55
      vertex 27.555 78.365 31.4
      vertex 27.555 78.365 4.55
    endloop
  endfacet
  facet normal -1 -0 0
    outer loop
      vertex 27.555 78.365 31.4
      vertex 27.555 7.115 4.55
      vertex 27.555 7.115 31.4
    endloop
  endfacet
  facet normal -0 0 1
    outer loop
      vertex 19.205 78.365 4.55
      vertex 27.555 7.115 4.55
      vertex 27.555 78.365 4.55
    endloop
  endfacet
  facet normal 0 0 1
    outer loop
      vertex 27.555 7.115 4.55
      vertex 19.205 78.365 4.55
      vertex 19.205 7.115 4.55
    endloop
  endfacet
  facet normal 0 1 -0
    outer loop
      vertex 27.555 7.115 4.55
      vertex 19.205 7.115 31.4
      vertex 27.555 7.115 31.4
    endloop
  endfacet
  facet normal 0 1 0
    outer loop
      vertex 19.205 7.115 31.4
      vertex 27.555 7.115 4.55
      vertex 19.205 7.115 4.55
    endloop
  endfacet
  facet normal 0 -1 0
    outer loop
      vertex 19.205 78.365 4.55
      vertex 27.555 78.365 31.4
      vertex 19.205 78.365 31.4
    endloop
  endfacet
  facet normal 0 -1 -0
    outer loop
      vertex 27.555 78.365 31.4
      vertex 19.205 78.365 4.55
      vertex 27.555 78.365 4.55
    endloop
  endfacet
  facet normal 1 -0 0
    outer loop
      vertex 28.205 7.115 31.4
      vertex 28.205 78.365 4.55
      vertex 28.205 78.365 31.4
    endloop
  endfacet
  facet normal 1 0 0
    outer loop
      vertex 28.205 78.365 4.55
      vertex 28.205 7.115 31.4
      vertex 28.205 7.115 4.55
    endloop
  endfacet
  facet normal -1 0 0
    outer loop
      vertex 36.555 7.115 4.55
      vertex 36.555 78.365 31.4
      vertex 36.555 78.365 4.55
    endloop
  endfacet
  facet normal -1 -0 0
    outer loop
      vertex 36.555 78.365 31.4
      vertex 36.555 7.115 4.55
      vertex 36.555 7.115 31.4
    endloop
  endfacet
  facet normal -0 0 1
    outer loop
      vertex 28.205 78.365 4.55
      vertex 36.555 7.115 4.55
      vertex 36.555 78.365 4.55
    endloop
  endfacet
  facet normal 0 0 1
    outer loop
      vertex 36.555 7.115 4.55
      vertex 28.205 78.365 4.55
      vertex 28.205 7.115 4.55
    endloop
  endfacet
  facet normal 0 1 -0
    outer loop
      vertex 36.555 7.115 4.55
      vertex 28.205 7.115 31.4
      vertex 36.555 7.115 31.4
    endloop
  endfacet
  facet normal 0 1 0
    outer loop
      vertex 28.205 7.115 31.4
      vertex 36.555 7.115 4.55
      vertex 28.205 7.115 4.55
    endloop
  endfacet
  facet normal 0 -1 0
    outer loop
      vertex 28.205 78.365 4.55
      vertex 36.555 78.365 31.4
      vertex 28.205 78.365 31.4
    endloop
  endfacet
  facet normal 0 -1 -0
    outer loop
      vertex 36.555 78.365 31.4
      vertex 28.205 78.365 4.55
      vertex 36.555 78.365 4.55
    endloop
  endfacet
  facet normal 1 -0 0
    outer loop
      vertex 37.205 7.115 31.4
      vertex 37.205 78.365 4.55
      vertex 37.205 78.365 31.4
    endloop
  endfacet
  facet normal 1 0 0
    outer loop
      vertex 37.205 78.365 4.55
      vertex 37.205 7.115 31.4
      vertex 37.205 7.115 4.55
    endloop
  endfacet
  facet normal -1 0 0
    outer loop
      vertex 45.555 7.115 4.55
      vertex 45.555 78.365 31.4
      vertex 45.555 78.365 4.55
    endloop
  endfacet
  facet normal -1 -0 0
    outer loop
      vertex 45.555 78.365 31.4
      vertex 45.555 7.115 4.55
      vertex 45.555 7.115 31.4
    endloop
  endfacet
  facet normal -0 0 1
    outer loop
      vertex 37.205 78.365 4.55
      vertex 45.555 7.115 4.55
      vertex 45.555 78.365 4.55
    endloop
  endfacet
  facet normal 0 0 1
    outer loop
      vertex 45.555 7.115 4.55
      vertex 37.205 78.365 4.55
      vertex 37.205 7.115 4.55
    endloop
  endfacet
  facet normal 0 1 -0
    outer loop
      vertex 45.555 7.115 4.55
      vertex 37.205 7.115 31.4
      vertex 45.555 7.115 31.4
    endloop
  endfacet
  facet normal 0 1 0
    outer loop
      vertex 37.205 7.115 31.4
      vertex 45.555 7.115 4.55
      vertex 37.205 7.115 4.55
    endloop
  endfacet
  facet normal 0 -1 0
    outer loop
      vertex 37.205 78.365 4.55
      vertex 45.555 78.365 31.4
      vertex 37.205 78.365 31.4
    endloop
  endfacet
  facet normal 0 -1 -0
    outer loop
      vertex 45.555 78.365 31.4
      vertex 37.205 78.365 4.55
      vertex 45.555 78.365 4.55
    endloop
  endfacet
  facet normal 1 -0 0
    outer loop
      vertex 46.205 7.115 31.4
      vertex 46.205 78.365 4.55
      vertex 46.205 78.365 31.4
    endloop
  endfacet
  facet normal 1 0 0
    outer loop
      vertex 46.205 78.365 4.55
      vertex 46.205 7.115 31.4
      vertex 46.205 7.115 4.55
    endloop
  endfacet
  facet normal -1 0 0
    outer loop
      vertex 54.555 7.115 4.55
      vertex 54.555 78.365 31.4
      vertex 54.555 78.365 4.55
    endloop
  endfacet
  facet normal -1 -0 0
    outer loop
      vertex 54.555 78.365 31.4
      vertex 54.555 7.115 4.55
      vertex 54.555 7.115 31.4
    endloop
  endfacet
  facet normal 0 -1 0
    outer loop
      vertex 46.205 78.365 4.55
      vertex 54.555 78.365 31.4
      vertex 46.205 78.365 31.4
    endloop
  endfacet
  facet normal 0 -1 -0
    outer loop
      vertex 54.555 78.365 31.4
      vertex 46.205 78.365 4.55
      vertex 54.555 78.365 4.55
    endloop
  endfacet
  facet normal -0 0 1
    outer loop
      vertex 46.205 78.365 4.55
      vertex 54.555 7.115 4.55
      vertex 54.555 78.365 4.55
    endloop
  endfacet
  facet normal 0 0 1
    outer loop
      vertex 54.555 7.115 4.55
      vertex 46.205 78.365 4.55
      vertex 46.205 7.115 4.55
    endloop
  endfacet
  facet normal 0 1 -0
    outer loop
      vertex 54.555 7.115 4.55
      vertex 46.205 7.115 31.4
      vertex 54.555 7.115 31.4
    endloop
  endfacet
  facet normal 0 1 0
    outer loop
      vertex 46.205 7.115 31.4
      vertex 54.555 7.115 4.55
      vertex 46.205 7.115 4.55
    endloop
  endfacet
  facet normal 1 -0 0
    outer loop
      vertex 55.205 7.115 31.4
      vertex 55.205 78.365 4.55
      vertex 55.205 78.365 31.4
    endloop
  endfacet
  facet normal 1 0 0
    outer loop
      vertex 55.205 78.365 4.55
      vertex 55.205 7.115 31.4
      vertex 55.205 7.115 4.55
    endloop
  endfacet
  facet normal -1 0 0
    outer loop
      vertex 63.555 7.115 4.55
      vertex 63.555 78.365 31.4
      vertex 63.555 78.365 4.55
    endloop
  endfacet
  facet normal -1 -0 0
    outer loop
      vertex 63.555 78.365 31.4
      vertex 63.555 7.115 4.55
      vertex 63.555 7.115 31.4
    endloop
  endfacet
  facet normal 0 -1 0
    outer loop
      vertex 55.205 78.365 4.55
      vertex 63.555 78.365 31.4
      vertex 55.205 78.365 31.4
    endloop
  endfacet
  facet normal 0 -1 -0
    outer loop
      vertex 63.555 78.365 31.4
      vertex 55.205 78.365 4.55
      vertex 63.555 78.365 4.55
    endloop
  endfacet
  facet normal -0 0 1
    outer loop
      vertex 55.205 78.365 4.55
      vertex 63.555 7.115 4.55
      vertex 63.555 78.365 4.55
    endloop
  endfacet
  facet normal 0 0 1
    outer loop
      vertex 63.555 7.115 4.55
      vertex 55.205 78.365 4.55
      vertex 55.205 7.115 4.55
    endloop
  endfacet
  facet normal 0 1 -0
    outer loop
      vertex 63.555 7.115 4.55
      vertex 55.205 7.115 31.4
      vertex 63.555 7.115 31.4
    endloop
  endfacet
  facet normal 0 1 0
    outer loop
      vertex 55.205 7.115 31.4
      vertex 63.555 7.115 4.55
      vertex 55.205 7.115 4.55
    endloop
  endfacet
  facet normal 1 -0 0
    outer loop
      vertex 64.205 7.115 31.4
      vertex 64.205 78.365 4.55
      vertex 64.205 78.365 31.4
    endloop
  endfacet
  facet normal 1 0 0
    outer loop
      vertex 64.205 78.365 4.55
      vertex 64.205 7.115 31.4
      vertex 64.205 7.115 4.55
    endloop
  endfacet
  facet normal -1 0 0
    outer loop
      vertex 72.555 7.115 4.55
      vertex 72.555 78.365 31.4
      vertex 72.555 78.365 4.55
    endloop
  endfacet
  facet normal -1 -0 0
    outer loop
      vertex 72.555 78.365 31.4
      vertex 72.555 7.115 4.55
      vertex 72.555 7.115 31.4
    endloop
  endfacet
  facet normal 0 -1 0
    outer loop
      vertex 64.205 78.365 4.55
      vertex 72.555 78.365 31.4
      vertex 64.205 78.365 31.4
    endloop
  endfacet
  facet normal 0 -1 -0
    outer loop
      vertex 72.555 78.365 31.4
      vertex 64.205 78.365 4.55
      vertex 72.555 78.365 4.55
    endloop
  endfacet
  facet normal -0 0 1
    outer loop
      vertex 64.205 78.365 4.55
      vertex 72.555 7.115 4.55
      vertex 72.555 78.365 4.55
    endloop
  endfacet
  facet normal 0 0 1
    outer loop
      vertex 72.555 7.115 4.55
      vertex 64.205 78.365 4.55
      vertex 64.205 7.115 4.55
    endloop
  endfacet
  facet normal 0 1 -0
    outer loop
      vertex 72.555 7.115 4.55
      vertex 64.205 7.115 31.4
      vertex 72.555 7.115 31.4
    endloop
  endfacet
  facet normal 0 1 0
    outer loop
      vertex 64.205 7.115 31.4
      vertex 72.555 7.115 4.55
      vertex 64.205 7.115 4.55
    endloop
  endfacet
  facet normal 1 -0 0
    outer loop
      vertex 73.205 7.115 31.4
      vertex 73.205 78.365 4.55
      vertex 73.205 78.365 31.4
    endloop
  endfacet
  facet normal 1 0 0
    outer loop
      vertex 73.205 78.365 4.55
      vertex 73.205 7.115 31.4
      vertex 73.205 7.115 4.55
    endloop
  endfacet
  facet normal -1 0 0
    outer loop
      vertex 81.555 7.115 4.55
      vertex 81.555 78.365 31.4
      vertex 81.555 78.365 4.55
    endloop
  endfacet
  facet normal -1 -0 0
    outer loop
      vertex 81.555 78.365 31.4
      vertex 81.555 7.115 4.55
      vertex 81.555 7.115 31.4
    endloop
  endfacet
  facet normal 0 -1 0
    outer loop
      vertex 73.205 78.365 4.55
      vertex 81.555 78.365 31.4
      vertex 73.205 78.365 31.4
    endloop
  endfacet
  facet normal 0 -1 -0
    outer loop
      vertex 81.555 78.365 31.4
      vertex 73.205 78.365 4.55
      vertex 81.555 78.365 4.55
    endloop
  endfacet
  facet normal -0 0 1
    outer loop
      vertex 73.205 78.365 4.55
      vertex 81.555 7.115 4.55
      vertex 81.555 78.365 4.55
    endloop
  endfacet
  facet normal 0 0 1
    outer loop
      vertex 81.555 7.115 4.55
      vertex 73.205 78.365 4.55
      vertex 73.205 7.115 4.55
    endloop
  endfacet
  facet normal 0 1 -0
    outer loop
      vertex 81.555 7.115 4.55
      vertex 73.205 7.115 31.4
      vertex 81.555 7.115 31.4
    endloop
  endfacet
  facet normal 0 1 0
    outer loop
      vertex 73.205 7.115 31.4
      vertex 81.555 7.115 4.55
      vertex 73.205 7.115 4.55
    endloop
  endfacet
  facet normal 1 -0 0
    outer loop
      vertex 82.205 7.115 31.4
      vertex 82.205 78.365 4.55
      vertex 82.205 78.365 31.4
    endloop
  endfacet
  facet normal 1 0 0
    outer loop
      vertex 82.205 78.365 4.55
      vertex 82.205 7.115 31.4
      vertex 82.205 7.115 4.55
    endloop
  endfacet
  facet normal -1 0 0
    outer loop
      vertex 90.555 7.115 4.55
      vertex 90.555 78.365 31.4
      vertex 90.555 78.365 4.55
    endloop
  endfacet
  facet normal -1 -0 0
    outer loop
      vertex 90.555 78.365 31.4
      vertex 90.555 7.115 4.55
      vertex 90.555 7.115 31.4
    endloop
  endfacet
  facet normal -0 0 1
    outer loop
      vertex 82.205 78.365 4.55
      vertex 90.555 7.115 4.55
      vertex 90.555 78.365 4.55
    endloop
  endfacet
  facet normal 0 0 1
    outer loop
      vertex 90.555 7.115 4.55
      vertex 82.205 78.365 4.55
      vertex 82.205 7.115 4.55
    endloop
  endfacet
  facet normal 0 1 -0
    outer loop
      vertex 90.555 7.115 4.55
      vertex 82.205 7.115 31.4
      vertex 90.555 7.115 31.4
    endloop
  endfacet
  facet normal 0 1 0
    outer loop
      vertex 82.205 7.115 31.4
      vertex 90.555 7.115 4.55
      vertex 82.205 7.115 4.55
    endloop
  endfacet
  facet normal 0 -1 0
    outer loop
      vertex 82.205 78.365 4.55
      vertex 90.555 78.365 31.4
      vertex 82.205 78.365 31.4
    endloop
  endfacet
  facet normal 0 -1 -0
    outer loop
      vertex 90.555 78.365 31.4
      vertex 82.205 78.365 4.55
      vertex 90.555 78.365 4.55
    endloop
  endfacet
  facet normal 1 -0 0
    outer loop
      vertex 91.205 7.115 31.4
      vertex 91.205 78.365 4.55
      vertex 91.205 78.365 31.4
    endloop
  endfacet
  facet normal 1 0 0
    outer loop
      vertex 91.205 78.365 4.55
      vertex 91.205 7.115 31.4
      vertex 91.205 7.115 4.55
    endloop
  endfacet
  facet normal -1 0 0
    outer loop
      vertex 99.555 7.115 4.55
      vertex 99.555 78.365 31.4
      vertex 99.555 78.365 4.55
    endloop
  endfacet
  facet normal -1 -0 0
    outer loop
      vertex 99.555 78.365 31.4
      vertex 99.555 7.115 4.55
      vertex 99.555 7.115 31.4
    endloop
  endfacet
  facet normal 0 -1 0
    outer loop
      vertex 91.205 78.365 4.55
      vertex 99.555 78.365 31.4
      vertex 91.205 78.365 31.4
    endloop
  endfacet
  facet normal 0 -1 -0
    outer loop
      vertex 99.555 78.365 31.4
      vertex 91.205 78.365 4.55
      vertex 99.555 78.365 4.55
    endloop
  endfacet
  facet normal -0 0 1
    outer loop
      vertex 91.205 78.365 4.55
      vertex 99.555 7.115 4.55
      vertex 99.555 78.365 4.55
    endloop
  endfacet
  facet normal 0 0 1
    outer loop
      vertex 99.555 7.115 4.55
      vertex 91.205 78.365 4.55
      vertex 91.205 7.115 4.55
    endloop
  endfacet
  facet normal 0 1 -0
    outer loop
      vertex 99.555 7.115 4.55
      vertex 91.205 7.115 31.4
      vertex 99.555 7.115 31.4
    endloop
  endfacet
  facet normal 0 1 0
    outer loop
      vertex 91.205 7.115 31.4
      vertex 99.555 7.115 4.55
      vertex 91.205 7.115 4.55
    endloop
  endfacet
  facet normal 1 -0 0
    outer loop
      vertex 100.205 7.115 31.4
      vertex 100.205 78.365 4.55
      vertex 100.205 78.365 31.4
    endloop
  endfacet
  facet normal 1 0 0
    outer loop
      vertex 100.205 78.365 4.55
      vertex 100.205 7.115 31.4
      vertex 100.205 7.115 4.55
    endloop
  endfacet
  facet normal -1 0 0
    outer loop
      vertex 108.555 7.115 4.55
      vertex 108.555 78.365 31.4
      vertex 108.555 78.365 4.55
    endloop
  endfacet
  facet normal -1 -0 0
    outer loop
      vertex 108.555 78.365 31.4
      vertex 108.555 7.115 4.55
      vertex 108.555 7.115 31.4
    endloop
  endfacet
  facet normal -0 0 1
    outer loop
      vertex 100.205 78.365 4.55
      vertex 108.555 7.115 4.55
      vertex 108.555 78.365 4.55
    endloop
  endfacet
  facet normal 0 0 1
    outer loop
      vertex 108.555 7.115 4.55
      vertex 100.205 78.365 4.55
      vertex 100.205 7.115 4.55
    endloop
  endfacet
  facet normal 0 1 -0
    outer loop
      vertex 108.555 7.115 4.55
      vertex 100.205 7.115 31.4
      vertex 108.555 7.115 31.4
    endloop
  endfacet
  facet normal 0 1 0
    outer loop
      vertex 100.205 7.115 31.4
      vertex 108.555 7.115 4.55
      vertex 100.205 7.115 4.55
    endloop
  endfacet
  facet normal 0 -1 0
    outer loop
      vertex 100.205 78.365 4.55
      vertex 108.555 78.365 31.4
      vertex 100.205 78.365 31.4
    endloop
  endfacet
  facet normal 0 -1 -0
    outer loop
      vertex 108.555 78.365 31.4
      vertex 100.205 78.365 4.55
      vertex 108.555 78.365 4.55
    endloop
  endfacet
  facet normal 1 -0 0
    outer loop
      vertex 109.205 7.115 31.4
      vertex 109.205 78.365 4.55
      vertex 109.205 78.365 31.4
    endloop
  endfacet
  facet normal 1 0 0
    outer loop
      vertex 109.205 78.365 4.55
      vertex 109.205 7.115 31.4
      vertex 109.205 7.115 4.55
    endloop
  endfacet
  facet normal -1 0 0
    outer loop
      vertex 117.555 7.115 4.55
      vertex 117.555 78.365 31.4
      vertex 117.555 78.365 4.55
    endloop
  endfacet
  facet normal -1 -0 0
    outer loop
      vertex 117.555 78.365 31.4
      vertex 117.555 7.115 4.55
      vertex 117.555 7.115 31.4
    endloop
  endfacet
  facet normal -0 0 1
    outer loop
      vertex 109.205 78.365 4.55
      vertex 117.555 7.115 4.55
      vertex 117.555 78.365 4.55
    endloop
  endfacet
  facet normal 0 0 1
    outer loop
      vertex 117.555 7.115 4.55
      vertex 109.205 78.365 4.55
      vertex 109.205 7.115 4.55
    endloop
  endfacet
  facet normal 0 1 -0
    outer loop
      vertex 117.555 7.115 4.55
      vertex 109.205 7.115 31.4
      vertex 117.555 7.115 31.4
    endloop
  endfacet
  facet normal 0 1 0
    outer loop
      vertex 109.205 7.115 31.4
      vertex 117.555 7.115 4.55
      vertex 109.205 7.115 4.55
    endloop
  endfacet
  facet normal 0 -1 0
    outer loop
      vertex 109.205 78.365 4.55
      vertex 117.555 78.365 31.4
      vertex 109.205 78.365 31.4
    endloop
  endfacet
  facet normal 0 -1 -0
    outer loop
      vertex 117.555 78.365 31.4
      vertex 109.205 78.365 4.55
      vertex 117.555 78.365 4.55
    endloop
  endfacet
endsolid OpenSCAD_Model
