solid OpenSCAD_Model
  facet normal -0 0 1
    outer loop
      vertex 0 85.48 12.8
      vertex 127.7 0 12.8
      vertex 127.7 85.48 12.8
    endloop
  endfacet
  facet normal 0 0 1
    outer loop
      vertex 127.7 0 12.8
      vertex 0 85.48 12.8
      vertex 0 0 12.8
    endloop
  endfacet
  facet normal 0 0 -1
    outer loop
      vertex 0 0 0
      vertex 127.7 85.48 0
      vertex 127.7 0 0
    endloop
  endfacet
  facet normal -0 0 -1
    outer loop
      vertex 127.7 85.48 0
      vertex 0 0 0
      vertex 0 85.48 0
    endloop
  endfacet
  facet normal 0 -1 0
    outer loop
      vertex 0 0 0
      vertex 127.7 0 12.8
      vertex 0 0 12.8
    endloop
  endfacet
  facet normal 0 -1 -0
    outer loop
      vertex 127.7 0 12.8
      vertex 0 0 0
      vertex 127.7 0 0
    endloop
  endfacet
  facet normal 1 -0 0
    outer loop
      vertex 127.7 0 12.8
      vertex 127.7 85.48 0
      vertex 127.7 85.48 12.8
    endloop
  endfacet
  facet normal 1 0 0
    outer loop
      vertex 127.7 85.48 0
      vertex 127.7 0 12.8
      vertex 127.7 0 0
    endloop
  endfacet
  facet normal 0 1 -0
    outer loop
      vertex 127.7 85.48 0
      vertex 0 85.48 12.8
      vertex 127.7 85.48 12.8
    endloop
  endfacet
  facet normal 0 1 0
    outer loop
      vertex 0 85.48 12.8
      vertex 127.7 85.48 0
      vertex 0 85.48 0
    endloop
  endfacet
  facet normal -1 0 0
    outer loop
      vertex 0 0 0
      vertex 0 85.48 12.8
      vertex 0 85.48 0
    endloop
  endfacet
  facet normal -1 -0 0
    outer loop
      vertex 0 85.48 12.8
      vertex 0 0 0
      vertex 0 0 12.8
    endloop
  endfacet
endsolid OpenSCAD_Model
