solid OpenSCAD_Model
  facet normal -0 0 1
    outer loop
      vertex 0 78.75 17
      vertex 121 0 17
      vertex 121 78.75 17
    endloop
  endfacet
  facet normal 0 0 1
    outer loop
      vertex 121 0 17
      vertex 0 78.75 17
      vertex 0 0 17
    endloop
  endfacet
  facet normal 0 0 -1
    outer loop
      vertex 0 0 0
      vertex 121 78.75 0
      vertex 121 0 0
    endloop
  endfacet
  facet normal -0 0 -1
    outer loop
      vertex 121 78.75 0
      vertex 0 0 0
      vertex 0 78.75 0
    endloop
  endfacet
  facet normal 0 -1 0
    outer loop
      vertex 0 0 0
      vertex 121 0 17
      vertex 0 0 17
    endloop
  endfacet
  facet normal 0 -1 -0
    outer loop
      vertex 121 0 17
      vertex 0 0 0
      vertex 121 0 0
    endloop
  endfacet
  facet normal 1 -0 0
    outer loop
      vertex 121 0 17
      vertex 121 78.75 0
      vertex 121 78.75 17
    endloop
  endfacet
  facet normal 1 0 0
    outer loop
      vertex 121 78.75 0
      vertex 121 0 17
      vertex 121 0 0
    endloop
  endfacet
  facet normal 0 1 -0
    outer loop
      vertex 121 78.75 0
      vertex 0 78.75 17
      vertex 121 78.75 17
    endloop
  endfacet
  facet normal 0 1 0
    outer loop
      vertex 0 78.75 17
      vertex 121 78.75 0
      vertex 0 78.75 0
    endloop
  endfacet
  facet normal -1 0 0
    outer loop
      vertex 0 0 0
      vertex 0 78.75 17
      vertex 0 78.75 0
    endloop
  endfacet
  facet normal -1 -0 0
    outer loop
      vertex 0 78.75 17
      vertex 0 0 0
      vertex 0 0 17
    endloop
  endfacet
endsolid OpenSCAD_Model
