solid OpenSCAD_Model
  facet normal -0 0 1
    outer loop
      vertex 0 84.5 6.95
      vertex 127 0 6.95
      vertex 127 84.5 6.95
    endloop
  endfacet
  facet normal 0 0 1
    outer loop
      vertex 127 0 6.95
      vertex 0 84.5 6.95
      vertex 0 0 6.95
    endloop
  endfacet
  facet normal 0 0 -1
    outer loop
      vertex 0 0 0
      vertex 127 84.5 0
      vertex 127 0 0
    endloop
  endfacet
  facet normal -0 0 -1
    outer loop
      vertex 127 84.5 0
      vertex 0 0 0
      vertex 0 84.5 0
    endloop
  endfacet
  facet normal 0 -1 0
    outer loop
      vertex 0 0 0
      vertex 127 0 6.95
      vertex 0 0 6.95
    endloop
  endfacet
  facet normal 0 -1 -0
    outer loop
      vertex 127 0 6.95
      vertex 0 0 0
      vertex 127 0 0
    endloop
  endfacet
  facet normal 1 -0 0
    outer loop
      vertex 127 0 6.95
      vertex 127 84.5 0
      vertex 127 84.5 6.95
    endloop
  endfacet
  facet normal 1 0 0
    outer loop
      vertex 127 84.5 0
      vertex 127 0 6.95
      vertex 127 0 0
    endloop
  endfacet
  facet normal 0 1 -0
    outer loop
      vertex 127 84.5 0
      vertex 0 84.5 6.95
      vertex 127 84.5 6.95
    endloop
  endfacet
  facet normal 0 1 0
    outer loop
      vertex 0 84.5 6.95
      vertex 127 84.5 0
      vertex 0 84.5 0
    endloop
  endfacet
  facet normal -1 0 0
    outer loop
      vertex 0 0 0
      vertex 0 84.5 6.95
      vertex 0 84.5 0
    endloop
  endfacet
  facet normal -1 -0 0
    outer loop
      vertex 0 84.5 6.95
      vertex 0 0 0
      vertex 0 0 6.95
    endloop
  endfacet
endsolid OpenSCAD_Model
