solid OpenSCAD_Model
  facet normal -0 0 1
    outer loop
      vertex 0 92 11.2
      vertex 134 0 11.2
      vertex 134 92 11.2
    endloop
  endfacet
  facet normal 0 0 1
    outer loop
      vertex 134 0 11.2
      vertex 0 92 11.2
      vertex 0 0 11.2
    endloop
  endfacet
  facet normal 0 0 -1
    outer loop
      vertex 0 0 0
      vertex 134 92 0
      vertex 134 0 0
    endloop
  endfacet
  facet normal -0 0 -1
    outer loop
      vertex 134 92 0
      vertex 0 0 0
      vertex 0 92 0
    endloop
  endfacet
  facet normal 0 -1 0
    outer loop
      vertex 0 0 0
      vertex 134 0 11.2
      vertex 0 0 11.2
    endloop
  endfacet
  facet normal 0 -1 -0
    outer loop
      vertex 134 0 11.2
      vertex 0 0 0
      vertex 134 0 0
    endloop
  endfacet
  facet normal 1 -0 0
    outer loop
      vertex 134 0 11.2
      vertex 134 92 0
      vertex 134 92 11.2
    endloop
  endfacet
  facet normal 1 0 0
    outer loop
      vertex 134 92 0
      vertex 134 0 11.2
      vertex 134 0 0
    endloop
  endfacet
  facet normal 0 1 -0
    outer loop
      vertex 134 92 0
      vertex 0 92 11.2
      vertex 134 92 11.2
    endloop
  endfacet
  facet normal 0 1 0
    outer loop
      vertex 0 92 11.2
      vertex 134 92 0
      vertex 0 92 0
    endloop
  endfacet
  facet normal -1 0 0
    outer loop
      vertex 0 0 0
      vertex 0 92 11.2
      vertex 0 92 0
    endloop
  endfacet
  facet normal -1 -0 0
    outer loop
      vertex 0 92 11.2
      vertex 0 0 0
      vertex 0 0 11.2
    endloop
  endfacet
endsolid OpenSCAD_Model
