solid OpenSCAD_Model
  facet normal -1 0 0
    outer loop
      vertex 0 0 0
      vertex 0 165.86 82
      vertex 0 165.86 0
    endloop
  endfacet
  facet normal -1 -0 0
    outer loop
      vertex 0 165.86 82
      vertex 0 0 0
      vertex 0 0 82
    endloop
  endfacet
  facet normal 0 0 1
    outer loop
      vertex 172.86 165.86 82
      vertex 136.395 162.835 82
      vertex 172.86 0 82
    endloop
  endfacet
  facet normal -0 0 1
    outer loop
      vertex 0 165.86 82
      vertex 136.395 162.835 82
      vertex 172.86 165.86 82
    endloop
  endfacet
  facet normal 0 0 1
    outer loop
      vertex 136.395 162.835 82
      vertex 0 165.86 82
      vertex 29.285 162.835 82
    endloop
  endfacet
  facet normal 0 0 1
    outer loop
      vertex 0 0 82
      vertex 29.285 162.835 82
      vertex 0 165.86 82
    endloop
  endfacet
  facet normal 0 0 1
    outer loop
      vertex 29.285 162.835 82
      vertex 0 0 82
      vertex 29.285 0 82
    endloop
  endfacet
  facet normal 0 0 1
    outer loop
      vertex 172.86 0 82
      vertex 136.395 162.835 82
      vertex 136.395 0 82
    endloop
  endfacet
  facet normal -0 0 1
    outer loop
      vertex 29.285 162.835 82
      vertex 136.395 0 82
      vertex 136.395 162.835 82
    endloop
  endfacet
  facet normal 0 0 1
    outer loop
      vertex 136.395 0 82
      vertex 29.285 162.835 82
      vertex 29.285 0 82
    endloop
  endfacet
  facet normal 1 -0 0
    outer loop
      vertex 172.86 0 82
      vertex 172.86 165.86 0
      vertex 172.86 165.86 82
    endloop
  endfacet
  facet normal 1 0 0
    outer loop
      vertex 172.86 165.86 0
      vertex 172.86 0 82
      vertex 172.86 0 0
    endloop
  endfacet
  facet normal 0 1 -0
    outer loop
      vertex 172.86 165.86 0
      vertex 0 165.86 82
      vertex 172.86 165.86 82
    endloop
  endfacet
  facet normal 0 1 0
    outer loop
      vertex 0 165.86 82
      vertex 172.86 165.86 0
      vertex 0 165.86 0
    endloop
  endfacet
  facet normal 0 0 -1
    outer loop
      vertex 0 0 0
      vertex 172.86 165.86 0
      vertex 172.86 0 0
    endloop
  endfacet
  facet normal -0 0 -1
    outer loop
      vertex 172.86 165.86 0
      vertex 0 0 0
      vertex 0 165.86 0
    endloop
  endfacet
  facet normal 0 -1 0
    outer loop
      vertex 0 0 0
      vertex 29.285 0 82
      vertex 0 0 82
    endloop
  endfacet
  facet normal 0 -1 -0
    outer loop
      vertex 29.285 0 82
      vertex 0 0 0
      vertex 136.395 0 82
    endloop
  endfacet
  facet normal 0 -1 0
    outer loop
      vertex 172.86 0 0
      vertex 136.395 0 82
      vertex 0 0 0
    endloop
  endfacet
  facet normal 0 -1 0
    outer loop
      vertex 136.395 0 82
      vertex 172.86 0 0
      vertex 172.86 0 82
    endloop
  endfacet
endsolid OpenSCAD_Model
