solid OpenSCAD_Model
  facet normal -1 0 0
    outer loop
      vertex 0 0 0
      vertex 0 91.5 40
      vertex 0 91.5 0
    endloop
  endfacet
  facet normal -1 -0 0
    outer loop
      vertex 0 91.5 40
      vertex 0 0 0
      vertex 0 0 40
    endloop
  endfacet
  facet normal 0 0 1
    outer loop
      vertex 246.5 91.5 40
      vertex 235.75 84.75 40
      vertex 246.5 0 40
    endloop
  endfacet
  facet normal 0 0 1
    outer loop
      vertex 246.5 91.5 40
      vertex 10.75 84.75 40
      vertex 235.75 84.75 40
    endloop
  endfacet
  facet normal 0 0 1
    outer loop
      vertex 10.75 84.75 40
      vertex 0 91.5 40
      vertex 10.75 6.75 40
    endloop
  endfacet
  facet normal -0 0 1
    outer loop
      vertex 0 91.5 40
      vertex 10.75 84.75 40
      vertex 246.5 91.5 40
    endloop
  endfacet
  facet normal -0 0 1
    outer loop
      vertex 235.75 6.75 40
      vertex 246.5 0 40
      vertex 235.75 84.75 40
    endloop
  endfacet
  facet normal -0 0 1
    outer loop
      vertex 10.75 6.75 40
      vertex 246.5 0 40
      vertex 235.75 6.75 40
    endloop
  endfacet
  facet normal 0 0 1
    outer loop
      vertex 10.75 6.75 40
      vertex 0 0 40
      vertex 246.5 0 40
    endloop
  endfacet
  facet normal 0 0 1
    outer loop
      vertex 0 0 40
      vertex 10.75 6.75 40
      vertex 0 91.5 40
    endloop
  endfacet
  facet normal 1 -0 0
    outer loop
      vertex 246.5 0 40
      vertex 246.5 91.5 0
      vertex 246.5 91.5 40
    endloop
  endfacet
  facet normal 1 0 0
    outer loop
      vertex 246.5 91.5 0
      vertex 246.5 0 40
      vertex 246.5 0 0
    endloop
  endfacet
  facet normal 0 1 -0
    outer loop
      vertex 246.5 91.5 0
      vertex 0 91.5 40
      vertex 246.5 91.5 40
    endloop
  endfacet
  facet normal 0 1 0
    outer loop
      vertex 0 91.5 40
      vertex 246.5 91.5 0
      vertex 0 91.5 0
    endloop
  endfacet
  facet normal 0 0 -1
    outer loop
      vertex 246.5 0 0
      vertex 235.75 6.75 0
      vertex 246.5 91.5 0
    endloop
  endfacet
  facet normal 0 0 -1
    outer loop
      vertex 246.5 0 0
      vertex 10.75 6.75 0
      vertex 235.75 6.75 0
    endloop
  endfacet
  facet normal -0 0 -1
    outer loop
      vertex 10.75 6.75 0
      vertex 0 0 0
      vertex 10.75 84.75 0
    endloop
  endfacet
  facet normal 0 0 -1
    outer loop
      vertex 0 0 0
      vertex 10.75 6.75 0
      vertex 246.5 0 0
    endloop
  endfacet
  facet normal 0 0 -1
    outer loop
      vertex 235.75 84.75 0
      vertex 246.5 91.5 0
      vertex 235.75 6.75 0
    endloop
  endfacet
  facet normal 0 0 -1
    outer loop
      vertex 10.75 84.75 0
      vertex 246.5 91.5 0
      vertex 235.75 84.75 0
    endloop
  endfacet
  facet normal 0 0 -1
    outer loop
      vertex 10.75 84.75 0
      vertex 0 91.5 0
      vertex 246.5 91.5 0
    endloop
  endfacet
  facet normal 0 0 -1
    outer loop
      vertex 0 91.5 0
      vertex 10.75 84.75 0
      vertex 0 0 0
    endloop
  endfacet
  facet normal 0 -1 0
    outer loop
      vertex 0 0 0
      vertex 246.5 0 40
      vertex 0 0 40
    endloop
  endfacet
  facet normal 0 -1 -0
    outer loop
      vertex 246.5 0 40
      vertex 0 0 0
      vertex 246.5 0 0
    endloop
  endfacet
  facet normal 1 -0 0
    outer loop
      vertex 10.75 6.75 40
      vertex 10.75 84.75 0
      vertex 10.75 84.75 40
    endloop
  endfacet
  facet normal 1 0 0
    outer loop
      vertex 10.75 84.75 0
      vertex 10.75 6.75 40
      vertex 10.75 6.75 0
    endloop
  endfacet
  facet normal -1 0 0
    outer loop
      vertex 235.75 6.75 0
      vertex 235.75 84.75 40
      vertex 235.75 84.75 0
    endloop
  endfacet
  facet normal -1 -0 0
    outer loop
      vertex 235.75 84.75 40
      vertex 235.75 6.75 0
      vertex 235.75 6.75 40
    endloop
  endfacet
  facet normal 0 1 -0
    outer loop
      vertex 235.75 6.75 0
      vertex 10.75 6.75 40
      vertex 235.75 6.75 40
    endloop
  endfacet
  facet normal 0 1 0
    outer loop
      vertex 10.75 6.75 40
      vertex 235.75 6.75 0
      vertex 10.75 6.75 0
    endloop
  endfacet
  facet normal 0 -1 0
    outer loop
      vertex 10.75 84.75 0
      vertex 235.75 84.75 40
      vertex 10.75 84.75 40
    endloop
  endfacet
  facet normal 0 -1 -0
    outer loop
      vertex 235.75 84.75 40
      vertex 10.75 84.75 0
      vertex 235.75 84.75 0
    endloop
  endfacet
endsolid OpenSCAD_Model
