solid OpenSCAD_Model
  facet normal -1 0 0
    outer loop
      vertex 0 0 0
      vertex 0 85.5 33
      vertex 0 85.5 0
    endloop
  endfacet
  facet normal -1 -0 0
    outer loop
      vertex 0 85.5 33
      vertex 0 0 0
      vertex 0 0 33
    endloop
  endfacet
  facet normal -1 0 0
    outer loop
      vertex 0 0 34
      vertex 0 85.5 62.5
      vertex 0 85.5 34
    endloop
  endfacet
  facet normal -1 -0 0
    outer loop
      vertex 0 85.5 62.5
      vertex 0 0 34
      vertex 0 0 62.5
    endloop
  endfacet
  facet normal -0 0 1
    outer loop
      vertex 63.87 85.5 62.5
      vertex 127.75 0 62.5
      vertex 127.75 85.5 62.5
    endloop
  endfacet
  facet normal 0 0 1
    outer loop
      vertex 127.75 0 62.5
      vertex 63.87 85.5 62.5
      vertex 63.87 0 62.5
    endloop
  endfacet
  facet normal -0 0 1
    outer loop
      vertex 0 85.5 62.5
      vertex 63.87 0 62.5
      vertex 63.87 85.5 62.5
    endloop
  endfacet
  facet normal 0 0 1
    outer loop
      vertex 63.87 0 62.5
      vertex 0 85.5 62.5
      vertex 0 0 62.5
    endloop
  endfacet
  facet normal 1 -0 0
    outer loop
      vertex 127.75 0 62.5
      vertex 127.75 85.5 0
      vertex 127.75 85.5 62.5
    endloop
  endfacet
  facet normal 1 0 0
    outer loop
      vertex 127.75 85.5 0
      vertex 127.75 0 62.5
      vertex 127.75 0 0
    endloop
  endfacet
  facet normal 0 0 -1
    outer loop
      vertex 0 0 0
      vertex 127.75 85.5 0
      vertex 127.75 0 0
    endloop
  endfacet
  facet normal -0 0 -1
    outer loop
      vertex 127.75 85.5 0
      vertex 0 0 0
      vertex 0 85.5 0
    endloop
  endfacet
  facet normal 0 -1 0
    outer loop
      vertex 0 0 33
      vertex 0 0 0
      vertex 63.88 0 33
    endloop
  endfacet
  facet normal 0 -1 0
    outer loop
      vertex 63.88 0 34
      vertex 63.87 0 62.5
      vertex 0 0 62.5
    endloop
  endfacet
  facet normal 0 -1 0
    outer loop
      vertex 63.88 0 34
      vertex 0 0 62.5
      vertex 0 0 34
    endloop
  endfacet
  facet normal 0 -1 0
    outer loop
      vertex 63.87 0 62.5
      vertex 63.88 0 34
      vertex 127.75 0 62.5
    endloop
  endfacet
  facet normal 0 -1 0
    outer loop
      vertex 63.88 0 33
      vertex 127.75 0 62.5
      vertex 63.88 0 34
    endloop
  endfacet
  facet normal 0 -1 0
    outer loop
      vertex 127.75 0 0
      vertex 63.88 0 33
      vertex 0 0 0
    endloop
  endfacet
  facet normal 0 -1 0
    outer loop
      vertex 63.88 0 33
      vertex 127.75 0 0
      vertex 127.75 0 62.5
    endloop
  endfacet
  facet normal 0 1 -0
    outer loop
      vertex 63.88 85.5 34
      vertex 63.87 85.5 62.5
      vertex 127.75 85.5 62.5
    endloop
  endfacet
  facet normal 0 1 0
    outer loop
      vertex 63.87 85.5 62.5
      vertex 63.88 85.5 34
      vertex 0 85.5 62.5
    endloop
  endfacet
  facet normal 0 1 0
    outer loop
      vertex 127.75 85.5 62.5
      vertex 63.88 85.5 33
      vertex 63.88 85.5 34
    endloop
  endfacet
  facet normal 0 1 -0
    outer loop
      vertex 127.75 85.5 0
      vertex 63.88 85.5 33
      vertex 127.75 85.5 62.5
    endloop
  endfacet
  facet normal 0 1 0
    outer loop
      vertex 0 85.5 0
      vertex 63.88 85.5 33
      vertex 127.75 85.5 0
    endloop
  endfacet
  facet normal 0 1 0
    outer loop
      vertex 63.88 85.5 33
      vertex 0 85.5 0
      vertex 0 85.5 33
    endloop
  endfacet
  facet normal 0 1 0
    outer loop
      vertex 0 85.5 62.5
      vertex 63.88 85.5 34
      vertex 0 85.5 34
    endloop
  endfacet
  facet normal 0 0 -1
    outer loop
      vertex 0 0 34
      vertex 63.88 85.5 34
      vertex 63.88 0 34
    endloop
  endfacet
  facet normal -0 0 -1
    outer loop
      vertex 63.88 85.5 34
      vertex 0 0 34
      vertex 0 85.5 34
    endloop
  endfacet
  facet normal -1 0 0
    outer loop
      vertex 63.88 0 33
      vertex 63.88 85.5 34
      vertex 63.88 85.5 33
    endloop
  endfacet
  facet normal -1 -0 0
    outer loop
      vertex 63.88 85.5 34
      vertex 63.88 0 33
      vertex 63.88 0 34
    endloop
  endfacet
  facet normal -0 0 1
    outer loop
      vertex 0 85.5 33
      vertex 63.88 0 33
      vertex 63.88 85.5 33
    endloop
  endfacet
  facet normal 0 0 1
    outer loop
      vertex 63.88 0 33
      vertex 0 85.5 33
      vertex 0 0 33
    endloop
  endfacet
endsolid OpenSCAD_Model
