solid OpenSCAD_Model
  facet normal -0 0 1
    outer loop
      vertex 0 85.48 9.2
      vertex 127.76 0 9.2
      vertex 127.76 85.48 9.2
    endloop
  endfacet
  facet normal 0 0 1
    outer loop
      vertex 127.76 0 9.2
      vertex 0 85.48 9.2
      vertex 0 0 9.2
    endloop
  endfacet
  facet normal 0 0 -1
    outer loop
      vertex 0 0 0
      vertex 127.76 85.48 0
      vertex 127.76 0 0
    endloop
  endfacet
  facet normal -0 0 -1
    outer loop
      vertex 127.76 85.48 0
      vertex 0 0 0
      vertex 0 85.48 0
    endloop
  endfacet
  facet normal 0 -1 0
    outer loop
      vertex 0 0 0
      vertex 127.76 0 9.2
      vertex 0 0 9.2
    endloop
  endfacet
  facet normal 0 -1 -0
    outer loop
      vertex 127.76 0 9.2
      vertex 0 0 0
      vertex 127.76 0 0
    endloop
  endfacet
  facet normal 1 -0 0
    outer loop
      vertex 127.76 0 9.2
      vertex 127.76 85.48 0
      vertex 127.76 85.48 9.2
    endloop
  endfacet
  facet normal 1 0 0
    outer loop
      vertex 127.76 85.48 0
      vertex 127.76 0 9.2
      vertex 127.76 0 0
    endloop
  endfacet
  facet normal 0 1 -0
    outer loop
      vertex 127.76 85.48 0
      vertex 0 85.48 9.2
      vertex 127.76 85.48 9.2
    endloop
  endfacet
  facet normal 0 1 0
    outer loop
      vertex 0 85.48 9.2
      vertex 127.76 85.48 0
      vertex 0 85.48 0
    endloop
  endfacet
  facet normal -1 0 0
    outer loop
      vertex 0 0 0
      vertex 0 85.48 9.2
      vertex 0 85.48 0
    endloop
  endfacet
  facet normal -1 -0 0
    outer loop
      vertex 0 85.48 9.2
      vertex 0 0 0
      vertex 0 0 9.2
    endloop
  endfacet
endsolid OpenSCAD_Model
