solid OpenSCAD_Model
  facet normal -1 0 0
    outer loop
      vertex 0 0 0
      vertex 0 85.47 44.4
      vertex 0 85.47 0
    endloop
  endfacet
  facet normal -1 -0 0
    outer loop
      vertex 0 85.47 44.4
      vertex 0 0 0
      vertex 0 0 44.4
    endloop
  endfacet
  facet normal 0 0 1
    outer loop
      vertex 127.76 85.47 44.4
      vertex 117.76 78.29 44.4
      vertex 127.76 0 44.4
    endloop
  endfacet
  facet normal 0 0 1
    outer loop
      vertex 127.76 85.47 44.4
      vertex 10 78.29 44.4
      vertex 117.76 78.29 44.4
    endloop
  endfacet
  facet normal 0 0 1
    outer loop
      vertex 10 78.29 44.4
      vertex 0 85.47 44.4
      vertex 10 7.19 44.4
    endloop
  endfacet
  facet normal -0 0 1
    outer loop
      vertex 0 85.47 44.4
      vertex 10 78.29 44.4
      vertex 127.76 85.47 44.4
    endloop
  endfacet
  facet normal -0 0 1
    outer loop
      vertex 117.76 7.19 44.4
      vertex 127.76 0 44.4
      vertex 117.76 78.29 44.4
    endloop
  endfacet
  facet normal -0 0 1
    outer loop
      vertex 10 7.19 44.4
      vertex 127.76 0 44.4
      vertex 117.76 7.19 44.4
    endloop
  endfacet
  facet normal 0 0 1
    outer loop
      vertex 10 7.19 44.4
      vertex 0 0 44.4
      vertex 127.76 0 44.4
    endloop
  endfacet
  facet normal 0 0 1
    outer loop
      vertex 0 0 44.4
      vertex 10 7.19 44.4
      vertex 0 85.47 44.4
    endloop
  endfacet
  facet normal 1 -0 0
    outer loop
      vertex 127.76 0 44.4
      vertex 127.76 85.47 0
      vertex 127.76 85.47 44.4
    endloop
  endfacet
  facet normal 1 0 0
    outer loop
      vertex 127.76 85.47 0
      vertex 127.76 0 44.4
      vertex 127.76 0 0
    endloop
  endfacet
  facet normal 0 0 -1
    outer loop
      vertex 0 0 0
      vertex 127.76 85.47 0
      vertex 127.76 0 0
    endloop
  endfacet
  facet normal -0 0 -1
    outer loop
      vertex 127.76 85.47 0
      vertex 0 0 0
      vertex 0 85.47 0
    endloop
  endfacet
  facet normal 0 -1 0
    outer loop
      vertex 0 0 0
      vertex 127.76 0 44.4
      vertex 0 0 44.4
    endloop
  endfacet
  facet normal 0 -1 -0
    outer loop
      vertex 127.76 0 44.4
      vertex 0 0 0
      vertex 127.76 0 0
    endloop
  endfacet
  facet normal 0 1 -0
    outer loop
      vertex 127.76 85.47 0
      vertex 0 85.47 44.4
      vertex 127.76 85.47 44.4
    endloop
  endfacet
  facet normal 0 1 0
    outer loop
      vertex 0 85.47 44.4
      vertex 127.76 85.47 0
      vertex 0 85.47 0
    endloop
  endfacet
  facet normal 1 -0 0
    outer loop
      vertex 10 7.19 44.4
      vertex 10 78.29 4.85
      vertex 10 78.29 44.4
    endloop
  endfacet
  facet normal 1 0 0
    outer loop
      vertex 10 78.29 4.85
      vertex 10 7.19 44.4
      vertex 10 7.19 4.85
    endloop
  endfacet
  facet normal -1 0 0
    outer loop
      vertex 117.76 7.19 4.85
      vertex 117.76 78.29 44.4
      vertex 117.76 78.29 4.85
    endloop
  endfacet
  facet normal -1 -0 0
    outer loop
      vertex 117.76 78.29 44.4
      vertex 117.76 7.19 4.85
      vertex 117.76 7.19 44.4
    endloop
  endfacet
  facet normal -0 0 1
    outer loop
      vertex 10 78.29 4.85
      vertex 117.76 7.19 4.85
      vertex 117.76 78.29 4.85
    endloop
  endfacet
  facet normal 0 0 1
    outer loop
      vertex 117.76 7.19 4.85
      vertex 10 78.29 4.85
      vertex 10 7.19 4.85
    endloop
  endfacet
  facet normal 0 1 -0
    outer loop
      vertex 117.76 7.19 4.85
      vertex 10 7.19 44.4
      vertex 117.76 7.19 44.4
    endloop
  endfacet
  facet normal 0 1 0
    outer loop
      vertex 10 7.19 44.4
      vertex 117.76 7.19 4.85
      vertex 10 7.19 4.85
    endloop
  endfacet
  facet normal 0 -1 0
    outer loop
      vertex 10 78.29 4.85
      vertex 117.76 78.29 44.4
      vertex 10 78.29 44.4
    endloop
  endfacet
  facet normal 0 -1 -0
    outer loop
      vertex 117.76 78.29 44.4
      vertex 10 78.29 4.85
      vertex 117.76 78.29 4.85
    endloop
  endfacet
endsolid OpenSCAD_Model
