solid OpenSCAD_Model
  facet normal -0 0 1
    outer loop
      vertex 0 95.5 57
      vertex 155 0 57
      vertex 155 95.5 57
    endloop
  endfacet
  facet normal 0 0 1
    outer loop
      vertex 155 0 57
      vertex 0 95.5 57
      vertex 0 0 57
    endloop
  endfacet
  facet normal 0 0 -1
    outer loop
      vertex 0 0 0
      vertex 155 95.5 0
      vertex 155 0 0
    endloop
  endfacet
  facet normal -0 0 -1
    outer loop
      vertex 155 95.5 0
      vertex 0 0 0
      vertex 0 95.5 0
    endloop
  endfacet
  facet normal 0 -1 0
    outer loop
      vertex 0 0 0
      vertex 155 0 57
      vertex 0 0 57
    endloop
  endfacet
  facet normal 0 -1 -0
    outer loop
      vertex 155 0 57
      vertex 0 0 0
      vertex 155 0 0
    endloop
  endfacet
  facet normal 1 -0 0
    outer loop
      vertex 155 0 57
      vertex 155 95.5 0
      vertex 155 95.5 57
    endloop
  endfacet
  facet normal 1 0 0
    outer loop
      vertex 155 95.5 0
      vertex 155 0 57
      vertex 155 0 0
    endloop
  endfacet
  facet normal 0 1 -0
    outer loop
      vertex 155 95.5 0
      vertex 0 95.5 57
      vertex 155 95.5 57
    endloop
  endfacet
  facet normal 0 1 0
    outer loop
      vertex 0 95.5 57
      vertex 155 95.5 0
      vertex 0 95.5 0
    endloop
  endfacet
  facet normal -1 0 0
    outer loop
      vertex 0 0 0
      vertex 0 95.5 57
      vertex 0 95.5 0
    endloop
  endfacet
  facet normal -1 -0 0
    outer loop
      vertex 0 95.5 57
      vertex 0 0 0
      vertex 0 0 57
    endloop
  endfacet
endsolid OpenSCAD_Model
