solid OpenSCAD_Model
  facet normal -0 0 1
    outer loop
      vertex 0 75 12
      vertex 111 0 12
      vertex 111 75 12
    endloop
  endfacet
  facet normal 0 0 1
    outer loop
      vertex 111 0 12
      vertex 0 75 12
      vertex 0 0 12
    endloop
  endfacet
  facet normal 0 0 -1
    outer loop
      vertex 0 0 0
      vertex 111 75 0
      vertex 111 0 0
    endloop
  endfacet
  facet normal -0 0 -1
    outer loop
      vertex 111 75 0
      vertex 0 0 0
      vertex 0 75 0
    endloop
  endfacet
  facet normal 0 -1 0
    outer loop
      vertex 0 0 0
      vertex 111 0 12
      vertex 0 0 12
    endloop
  endfacet
  facet normal 0 -1 -0
    outer loop
      vertex 111 0 12
      vertex 0 0 0
      vertex 111 0 0
    endloop
  endfacet
  facet normal 1 -0 0
    outer loop
      vertex 111 0 12
      vertex 111 75 0
      vertex 111 75 12
    endloop
  endfacet
  facet normal 1 0 0
    outer loop
      vertex 111 75 0
      vertex 111 0 12
      vertex 111 0 0
    endloop
  endfacet
  facet normal 0 1 -0
    outer loop
      vertex 111 75 0
      vertex 0 75 12
      vertex 111 75 12
    endloop
  endfacet
  facet normal 0 1 0
    outer loop
      vertex 0 75 12
      vertex 111 75 0
      vertex 0 75 0
    endloop
  endfacet
  facet normal -1 0 0
    outer loop
      vertex 0 0 0
      vertex 0 75 12
      vertex 0 75 0
    endloop
  endfacet
  facet normal -1 -0 0
    outer loop
      vertex 0 75 12
      vertex 0 0 0
      vertex 0 0 12
    endloop
  endfacet
endsolid OpenSCAD_Model
