solid OpenSCAD_Model
  facet normal -1 0 0
    outer loop
      vertex 0 0 0
      vertex 0 85.5 15
      vertex 0 85.5 0
    endloop
  endfacet
  facet normal -1 -0 0
    outer loop
      vertex 0 85.5 15
      vertex 0 0 0
      vertex 0 0 15
    endloop
  endfacet
  facet normal 0 0 1
    outer loop
      vertex 77.4976 55.951 15
      vertex 127.75 85.5 15
      vertex 77.5 56 15
    endloop
  endfacet
  facet normal 0 0 1
    outer loop
      vertex 127.75 85.5 15
      vertex 77.4976 56.049 15
      vertex 77.5 56 15
    endloop
  endfacet
  facet normal 0 0 1
    outer loop
      vertex 127.75 85.5 15
      vertex 77.4904 56.0975 15
      vertex 77.4976 56.049 15
    endloop
  endfacet
  facet normal 0 0 1
    outer loop
      vertex 127.75 85.5 15
      vertex 77.4785 56.1451 15
      vertex 77.4904 56.0975 15
    endloop
  endfacet
  facet normal 0 0 1
    outer loop
      vertex 127.75 85.5 15
      vertex 77.4619 56.1913 15
      vertex 77.4785 56.1451 15
    endloop
  endfacet
  facet normal 0 0 1
    outer loop
      vertex 127.75 85.5 15
      vertex 77.441 56.2357 15
      vertex 77.4619 56.1913 15
    endloop
  endfacet
  facet normal 0 0 1
    outer loop
      vertex 127.75 85.5 15
      vertex 77.4157 56.2778 15
      vertex 77.441 56.2357 15
    endloop
  endfacet
  facet normal 0 0 1
    outer loop
      vertex 127.75 85.5 15
      vertex 77.3865 56.3172 15
      vertex 77.4157 56.2778 15
    endloop
  endfacet
  facet normal 0 0 1
    outer loop
      vertex 127.75 85.5 15
      vertex 77.3536 56.3536 15
      vertex 77.3865 56.3172 15
    endloop
  endfacet
  facet normal 0 0 1
    outer loop
      vertex 127.75 85.5 15
      vertex 77.3172 56.3865 15
      vertex 77.3536 56.3536 15
    endloop
  endfacet
  facet normal 0 0 1
    outer loop
      vertex 127.75 85.5 15
      vertex 77.2778 56.4157 15
      vertex 77.3172 56.3865 15
    endloop
  endfacet
  facet normal 0 0 1
    outer loop
      vertex 127.75 85.5 15
      vertex 77.2357 56.441 15
      vertex 77.2778 56.4157 15
    endloop
  endfacet
  facet normal 0 0 1
    outer loop
      vertex 127.75 85.5 15
      vertex 77.1913 56.4619 15
      vertex 77.2357 56.441 15
    endloop
  endfacet
  facet normal 0 0 1
    outer loop
      vertex 127.75 85.5 15
      vertex 77.1451 56.4785 15
      vertex 77.1913 56.4619 15
    endloop
  endfacet
  facet normal 0 0 1
    outer loop
      vertex 127.75 85.5 15
      vertex 77.0975 56.4904 15
      vertex 77.1451 56.4785 15
    endloop
  endfacet
  facet normal 0 0 1
    outer loop
      vertex 127.75 85.5 15
      vertex 77.049 56.4976 15
      vertex 77.0975 56.4904 15
    endloop
  endfacet
  facet normal 0 0 1
    outer loop
      vertex 127.75 85.5 15
      vertex 77 56.5 15
      vertex 77.049 56.4976 15
    endloop
  endfacet
  facet normal 0 0 1
    outer loop
      vertex 127.75 85.5 15
      vertex 76.951 56.4976 15
      vertex 77 56.5 15
    endloop
  endfacet
  facet normal 0 0 1
    outer loop
      vertex 127.75 85.5 15
      vertex 76.9025 56.4904 15
      vertex 76.951 56.4976 15
    endloop
  endfacet
  facet normal -0 0 1
    outer loop
      vertex 0 85.5 15
      vertex 76.9025 56.4904 15
      vertex 127.75 85.5 15
    endloop
  endfacet
  facet normal 0 0 1
    outer loop
      vertex 76.9025 56.4904 15
      vertex 0 85.5 15
      vertex 76.8549 56.4785 15
    endloop
  endfacet
  facet normal 0 -0 1
    outer loop
      vertex 54 53 15
      vertex 76.8549 56.4785 15
      vertex 0 85.5 15
    endloop
  endfacet
  facet normal 0 0 1
    outer loop
      vertex 76.5024 56.049 15
      vertex 74 53 15
      vertex 76.5 56 15
    endloop
  endfacet
  facet normal 0 0 1
    outer loop
      vertex 76.5096 56.0975 15
      vertex 74 53 15
      vertex 76.5024 56.049 15
    endloop
  endfacet
  facet normal 0 0 1
    outer loop
      vertex 76.5215 56.1451 15
      vertex 74 53 15
      vertex 76.5096 56.0975 15
    endloop
  endfacet
  facet normal 0 0 1
    outer loop
      vertex 76.5381 56.1913 15
      vertex 74 53 15
      vertex 76.5215 56.1451 15
    endloop
  endfacet
  facet normal 0 0 1
    outer loop
      vertex 76.559 56.2357 15
      vertex 74 53 15
      vertex 76.5381 56.1913 15
    endloop
  endfacet
  facet normal 0 0 1
    outer loop
      vertex 54 53 15
      vertex 76.559 56.2357 15
      vertex 76.5843 56.2778 15
    endloop
  endfacet
  facet normal 0 0 1
    outer loop
      vertex 54 53 15
      vertex 76.5843 56.2778 15
      vertex 76.6135 56.3172 15
    endloop
  endfacet
  facet normal 0 0 1
    outer loop
      vertex 76.559 56.2357 15
      vertex 54 53 15
      vertex 74 53 15
    endloop
  endfacet
  facet normal 0 0 1
    outer loop
      vertex 76.6464 56.3536 15
      vertex 54 53 15
      vertex 76.6135 56.3172 15
    endloop
  endfacet
  facet normal 0 0 1
    outer loop
      vertex 76.6828 56.3865 15
      vertex 54 53 15
      vertex 76.6464 56.3536 15
    endloop
  endfacet
  facet normal 0 0 1
    outer loop
      vertex 76.7222 56.4157 15
      vertex 54 53 15
      vertex 76.6828 56.3865 15
    endloop
  endfacet
  facet normal 0 0 1
    outer loop
      vertex 76.7643 56.441 15
      vertex 54 53 15
      vertex 76.7222 56.4157 15
    endloop
  endfacet
  facet normal 0 0 1
    outer loop
      vertex 76.8549 56.4785 15
      vertex 54 53 15
      vertex 76.8087 56.4619 15
    endloop
  endfacet
  facet normal 0 0 1
    outer loop
      vertex 54 53 15
      vertex 0 85.5 15
      vertex 54 33 15
    endloop
  endfacet
  facet normal 0 0 1
    outer loop
      vertex 76.8087 56.4619 15
      vertex 54 53 15
      vertex 76.7643 56.441 15
    endloop
  endfacet
  facet normal 0 0 1
    outer loop
      vertex 77.4904 55.9025 15
      vertex 127.75 85.5 15
      vertex 77.4976 55.951 15
    endloop
  endfacet
  facet normal 0 0 1
    outer loop
      vertex 77.4785 55.8549 15
      vertex 127.75 85.5 15
      vertex 77.4904 55.9025 15
    endloop
  endfacet
  facet normal 0 0 1
    outer loop
      vertex 127.75 85.5 15
      vertex 77.4785 55.8549 15
      vertex 127.75 0 15
    endloop
  endfacet
  facet normal -0 0 1
    outer loop
      vertex 77.4619 55.8087 15
      vertex 127.75 0 15
      vertex 77.4785 55.8549 15
    endloop
  endfacet
  facet normal -0 0 1
    outer loop
      vertex 77.441 55.7643 15
      vertex 127.75 0 15
      vertex 77.4619 55.8087 15
    endloop
  endfacet
  facet normal 0 0 1
    outer loop
      vertex 74 33 15
      vertex 77.441 55.7643 15
      vertex 77.4157 55.7222 15
    endloop
  endfacet
  facet normal 0 0 1
    outer loop
      vertex 74 33 15
      vertex 77.4157 55.7222 15
      vertex 77.3865 55.6828 15
    endloop
  endfacet
  facet normal 0 0 1
    outer loop
      vertex 74 33 15
      vertex 77.3865 55.6828 15
      vertex 77.3536 55.6464 15
    endloop
  endfacet
  facet normal 0 0 1
    outer loop
      vertex 74 33 15
      vertex 77.3536 55.6464 15
      vertex 77.3172 55.6135 15
    endloop
  endfacet
  facet normal 0 0 1
    outer loop
      vertex 74 33 15
      vertex 77.3172 55.6135 15
      vertex 77.2778 55.5843 15
    endloop
  endfacet
  facet normal 0 0 1
    outer loop
      vertex 74 33 15
      vertex 77.2778 55.5843 15
      vertex 77.2357 55.559 15
    endloop
  endfacet
  facet normal 0 0 1
    outer loop
      vertex 74 53 15
      vertex 77.2357 55.559 15
      vertex 77.1913 55.5381 15
    endloop
  endfacet
  facet normal 0 0 1
    outer loop
      vertex 74 53 15
      vertex 77.1913 55.5381 15
      vertex 77.1451 55.5215 15
    endloop
  endfacet
  facet normal 0 0 1
    outer loop
      vertex 74 53 15
      vertex 77.1451 55.5215 15
      vertex 77.0975 55.5096 15
    endloop
  endfacet
  facet normal 0 0 1
    outer loop
      vertex 74 53 15
      vertex 77.0975 55.5096 15
      vertex 77.049 55.5024 15
    endloop
  endfacet
  facet normal 0 0 1
    outer loop
      vertex 74 53 15
      vertex 77.049 55.5024 15
      vertex 77 55.5 15
    endloop
  endfacet
  facet normal 0 0 1
    outer loop
      vertex 74 53 15
      vertex 77 55.5 15
      vertex 76.951 55.5024 15
    endloop
  endfacet
  facet normal 0 0 1
    outer loop
      vertex 74 53 15
      vertex 76.951 55.5024 15
      vertex 76.9025 55.5096 15
    endloop
  endfacet
  facet normal 0 0 1
    outer loop
      vertex 74 53 15
      vertex 76.9025 55.5096 15
      vertex 76.8549 55.5215 15
    endloop
  endfacet
  facet normal 0 0 1
    outer loop
      vertex 74 53 15
      vertex 76.8549 55.5215 15
      vertex 76.8087 55.5381 15
    endloop
  endfacet
  facet normal 0 0 1
    outer loop
      vertex 74 53 15
      vertex 76.8087 55.5381 15
      vertex 76.7643 55.559 15
    endloop
  endfacet
  facet normal 0 0 1
    outer loop
      vertex 74 53 15
      vertex 76.7643 55.559 15
      vertex 76.7222 55.5843 15
    endloop
  endfacet
  facet normal 0 0 1
    outer loop
      vertex 74 53 15
      vertex 76.7222 55.5843 15
      vertex 76.6828 55.6135 15
    endloop
  endfacet
  facet normal 0 0 1
    outer loop
      vertex 74 53 15
      vertex 76.6828 55.6135 15
      vertex 76.6464 55.6464 15
    endloop
  endfacet
  facet normal 0 0 1
    outer loop
      vertex 74 53 15
      vertex 76.5024 55.951 15
      vertex 76.5 56 15
    endloop
  endfacet
  facet normal 0 0 1
    outer loop
      vertex 74 53 15
      vertex 76.5096 55.9025 15
      vertex 76.5024 55.951 15
    endloop
  endfacet
  facet normal 0 0 1
    outer loop
      vertex 74 53 15
      vertex 76.5215 55.8549 15
      vertex 76.5096 55.9025 15
    endloop
  endfacet
  facet normal 0 0 1
    outer loop
      vertex 74 53 15
      vertex 76.5381 55.8087 15
      vertex 76.5215 55.8549 15
    endloop
  endfacet
  facet normal 0 0 1
    outer loop
      vertex 74 53 15
      vertex 76.559 55.7643 15
      vertex 76.5381 55.8087 15
    endloop
  endfacet
  facet normal 0 0 1
    outer loop
      vertex 74 53 15
      vertex 76.5843 55.7222 15
      vertex 76.559 55.7643 15
    endloop
  endfacet
  facet normal 0 0 1
    outer loop
      vertex 74 53 15
      vertex 76.6135 55.6828 15
      vertex 76.5843 55.7222 15
    endloop
  endfacet
  facet normal 0 0 1
    outer loop
      vertex 74 53 15
      vertex 76.6464 55.6464 15
      vertex 76.6135 55.6828 15
    endloop
  endfacet
  facet normal 0 0 1
    outer loop
      vertex 77.2357 55.559 15
      vertex 74 53 15
      vertex 74 33 15
    endloop
  endfacet
  facet normal 0 0 1
    outer loop
      vertex 77.441 55.7643 15
      vertex 74 33 15
      vertex 127.75 0 15
    endloop
  endfacet
  facet normal -0 0 1
    outer loop
      vertex 54 33 15
      vertex 127.75 0 15
      vertex 74 33 15
    endloop
  endfacet
  facet normal 0 0 1
    outer loop
      vertex 54 33 15
      vertex 0 0 15
      vertex 127.75 0 15
    endloop
  endfacet
  facet normal 0 0 1
    outer loop
      vertex 0 0 15
      vertex 54 33 15
      vertex 0 85.5 15
    endloop
  endfacet
  facet normal 0 0 1
    outer loop
      vertex 77.4976 56.049 15
      vertex 77.4976 55.951 15
      vertex 77.5 56 15
    endloop
  endfacet
  facet normal 0 0 1
    outer loop
      vertex 77.4904 56.0975 15
      vertex 77.4976 55.951 15
      vertex 77.4976 56.049 15
    endloop
  endfacet
  facet normal 0 0 1
    outer loop
      vertex 77.4904 56.0975 15
      vertex 77.4904 55.9025 15
      vertex 77.4976 55.951 15
    endloop
  endfacet
  facet normal 0 0 1
    outer loop
      vertex 77.4785 56.1451 15
      vertex 77.4904 55.9025 15
      vertex 77.4904 56.0975 15
    endloop
  endfacet
  facet normal 0 0 1
    outer loop
      vertex 77.4785 56.1451 15
      vertex 77.4785 55.8549 15
      vertex 77.4904 55.9025 15
    endloop
  endfacet
  facet normal 0 0 1
    outer loop
      vertex 77.4619 56.1913 15
      vertex 77.4785 55.8549 15
      vertex 77.4785 56.1451 15
    endloop
  endfacet
  facet normal 0 0 1
    outer loop
      vertex 77.4619 56.1913 15
      vertex 77.4619 55.8087 15
      vertex 77.4785 55.8549 15
    endloop
  endfacet
  facet normal 0 0 1
    outer loop
      vertex 77.441 56.2357 15
      vertex 77.4619 55.8087 15
      vertex 77.4619 56.1913 15
    endloop
  endfacet
  facet normal 0 0 1
    outer loop
      vertex 77.441 56.2357 15
      vertex 77.441 55.7643 15
      vertex 77.4619 55.8087 15
    endloop
  endfacet
  facet normal 0 0 1
    outer loop
      vertex 77.4157 56.2778 15
      vertex 77.441 55.7643 15
      vertex 77.441 56.2357 15
    endloop
  endfacet
  facet normal 0 0 1
    outer loop
      vertex 77.4157 56.2778 15
      vertex 77.4157 55.7222 15
      vertex 77.441 55.7643 15
    endloop
  endfacet
  facet normal 0 0 1
    outer loop
      vertex 77.3865 56.3172 15
      vertex 77.4157 55.7222 15
      vertex 77.4157 56.2778 15
    endloop
  endfacet
  facet normal 0 0 1
    outer loop
      vertex 77.3865 56.3172 15
      vertex 77.3865 55.6828 15
      vertex 77.4157 55.7222 15
    endloop
  endfacet
  facet normal 0 0 1
    outer loop
      vertex 77.3536 56.3536 15
      vertex 77.3865 55.6828 15
      vertex 77.3865 56.3172 15
    endloop
  endfacet
  facet normal 0 0 1
    outer loop
      vertex 77.3536 56.3536 15
      vertex 77.3536 55.6464 15
      vertex 77.3865 55.6828 15
    endloop
  endfacet
  facet normal 0 0 1
    outer loop
      vertex 77.3172 56.3865 15
      vertex 77.3536 55.6464 15
      vertex 77.3536 56.3536 15
    endloop
  endfacet
  facet normal 0 0 1
    outer loop
      vertex 77.3172 56.3865 15
      vertex 77.3172 55.6135 15
      vertex 77.3536 55.6464 15
    endloop
  endfacet
  facet normal 0 0 1
    outer loop
      vertex 77.2778 56.4157 15
      vertex 77.3172 55.6135 15
      vertex 77.3172 56.3865 15
    endloop
  endfacet
  facet normal 0 0 1
    outer loop
      vertex 77.2778 56.4157 15
      vertex 77.2778 55.5843 15
      vertex 77.3172 55.6135 15
    endloop
  endfacet
  facet normal 0 0 1
    outer loop
      vertex 77.2357 56.441 15
      vertex 77.2778 55.5843 15
      vertex 77.2778 56.4157 15
    endloop
  endfacet
  facet normal 0 0 1
    outer loop
      vertex 77.2357 56.441 15
      vertex 77.2357 55.559 15
      vertex 77.2778 55.5843 15
    endloop
  endfacet
  facet normal 0 0 1
    outer loop
      vertex 77.1913 56.4619 15
      vertex 77.2357 55.559 15
      vertex 77.2357 56.441 15
    endloop
  endfacet
  facet normal 0 0 1
    outer loop
      vertex 77.1913 56.4619 15
      vertex 77.1913 55.5381 15
      vertex 77.2357 55.559 15
    endloop
  endfacet
  facet normal 0 0 1
    outer loop
      vertex 77.1451 56.4785 15
      vertex 77.1913 55.5381 15
      vertex 77.1913 56.4619 15
    endloop
  endfacet
  facet normal 0 0 1
    outer loop
      vertex 77.1451 56.4785 15
      vertex 77.1451 55.5215 15
      vertex 77.1913 55.5381 15
    endloop
  endfacet
  facet normal 0 0 1
    outer loop
      vertex 77.0975 56.4904 15
      vertex 77.1451 55.5215 15
      vertex 77.1451 56.4785 15
    endloop
  endfacet
  facet normal 0 0 1
    outer loop
      vertex 77.0975 56.4904 15
      vertex 77.0975 55.5096 15
      vertex 77.1451 55.5215 15
    endloop
  endfacet
  facet normal 0 0 1
    outer loop
      vertex 77.049 56.4976 15
      vertex 77.0975 55.5096 15
      vertex 77.0975 56.4904 15
    endloop
  endfacet
  facet normal 0 0 1
    outer loop
      vertex 77.049 56.4976 15
      vertex 77.049 55.5024 15
      vertex 77.0975 55.5096 15
    endloop
  endfacet
  facet normal 0 0 1
    outer loop
      vertex 77 56.5 15
      vertex 77.049 55.5024 15
      vertex 77.049 56.4976 15
    endloop
  endfacet
  facet normal 0 0 1
    outer loop
      vertex 77 56.5 15
      vertex 77 55.5 15
      vertex 77.049 55.5024 15
    endloop
  endfacet
  facet normal -0 0 1
    outer loop
      vertex 76.951 56.4976 15
      vertex 77 55.5 15
      vertex 77 56.5 15
    endloop
  endfacet
  facet normal 0 0 1
    outer loop
      vertex 76.951 56.4976 15
      vertex 76.951 55.5024 15
      vertex 77 55.5 15
    endloop
  endfacet
  facet normal -0 0 1
    outer loop
      vertex 76.9025 56.4904 15
      vertex 76.951 55.5024 15
      vertex 76.951 56.4976 15
    endloop
  endfacet
  facet normal 0 0 1
    outer loop
      vertex 76.9025 56.4904 15
      vertex 76.9025 55.5096 15
      vertex 76.951 55.5024 15
    endloop
  endfacet
  facet normal -0 0 1
    outer loop
      vertex 76.8549 56.4785 15
      vertex 76.9025 55.5096 15
      vertex 76.9025 56.4904 15
    endloop
  endfacet
  facet normal 0 0 1
    outer loop
      vertex 76.8549 56.4785 15
      vertex 76.8549 55.5215 15
      vertex 76.9025 55.5096 15
    endloop
  endfacet
  facet normal -0 0 1
    outer loop
      vertex 76.8087 56.4619 15
      vertex 76.8549 55.5215 15
      vertex 76.8549 56.4785 15
    endloop
  endfacet
  facet normal 0 0 1
    outer loop
      vertex 76.8087 56.4619 15
      vertex 76.8087 55.5381 15
      vertex 76.8549 55.5215 15
    endloop
  endfacet
  facet normal -0 0 1
    outer loop
      vertex 76.7643 56.441 15
      vertex 76.8087 55.5381 15
      vertex 76.8087 56.4619 15
    endloop
  endfacet
  facet normal 0 0 1
    outer loop
      vertex 76.7643 56.441 15
      vertex 76.7643 55.559 15
      vertex 76.8087 55.5381 15
    endloop
  endfacet
  facet normal -0 0 1
    outer loop
      vertex 76.7222 56.4157 15
      vertex 76.7643 55.559 15
      vertex 76.7643 56.441 15
    endloop
  endfacet
  facet normal 0 0 1
    outer loop
      vertex 76.7222 56.4157 15
      vertex 76.7222 55.5843 15
      vertex 76.7643 55.559 15
    endloop
  endfacet
  facet normal -0 0 1
    outer loop
      vertex 76.6828 56.3865 15
      vertex 76.7222 55.5843 15
      vertex 76.7222 56.4157 15
    endloop
  endfacet
  facet normal 0 0 1
    outer loop
      vertex 76.6828 56.3865 15
      vertex 76.6828 55.6135 15
      vertex 76.7222 55.5843 15
    endloop
  endfacet
  facet normal -0 0 1
    outer loop
      vertex 76.6464 56.3536 15
      vertex 76.6828 55.6135 15
      vertex 76.6828 56.3865 15
    endloop
  endfacet
  facet normal 0 0 1
    outer loop
      vertex 76.6464 56.3536 15
      vertex 76.6464 55.6464 15
      vertex 76.6828 55.6135 15
    endloop
  endfacet
  facet normal -0 0 1
    outer loop
      vertex 76.6135 56.3172 15
      vertex 76.6464 55.6464 15
      vertex 76.6464 56.3536 15
    endloop
  endfacet
  facet normal 0 0 1
    outer loop
      vertex 76.6135 56.3172 15
      vertex 76.6135 55.6828 15
      vertex 76.6464 55.6464 15
    endloop
  endfacet
  facet normal -0 0 1
    outer loop
      vertex 76.5843 56.2778 15
      vertex 76.6135 55.6828 15
      vertex 76.6135 56.3172 15
    endloop
  endfacet
  facet normal 0 0 1
    outer loop
      vertex 76.5843 56.2778 15
      vertex 76.5843 55.7222 15
      vertex 76.6135 55.6828 15
    endloop
  endfacet
  facet normal -0 0 1
    outer loop
      vertex 76.559 56.2357 15
      vertex 76.5843 55.7222 15
      vertex 76.5843 56.2778 15
    endloop
  endfacet
  facet normal 0 0 1
    outer loop
      vertex 76.559 56.2357 15
      vertex 76.559 55.7643 15
      vertex 76.5843 55.7222 15
    endloop
  endfacet
  facet normal -0 0 1
    outer loop
      vertex 76.5381 56.1913 15
      vertex 76.559 55.7643 15
      vertex 76.559 56.2357 15
    endloop
  endfacet
  facet normal 0 0 1
    outer loop
      vertex 76.5381 56.1913 15
      vertex 76.5381 55.8087 15
      vertex 76.559 55.7643 15
    endloop
  endfacet
  facet normal -0 0 1
    outer loop
      vertex 76.5215 56.1451 15
      vertex 76.5381 55.8087 15
      vertex 76.5381 56.1913 15
    endloop
  endfacet
  facet normal 0 0 1
    outer loop
      vertex 76.5215 56.1451 15
      vertex 76.5215 55.8549 15
      vertex 76.5381 55.8087 15
    endloop
  endfacet
  facet normal -0 0 1
    outer loop
      vertex 76.5096 56.0975 15
      vertex 76.5215 55.8549 15
      vertex 76.5215 56.1451 15
    endloop
  endfacet
  facet normal 0 0 1
    outer loop
      vertex 76.5096 56.0975 15
      vertex 76.5096 55.9025 15
      vertex 76.5215 55.8549 15
    endloop
  endfacet
  facet normal -0 0 1
    outer loop
      vertex 76.5024 56.049 15
      vertex 76.5096 55.9025 15
      vertex 76.5096 56.0975 15
    endloop
  endfacet
  facet normal 0 0 1
    outer loop
      vertex 76.5024 56.049 15
      vertex 76.5024 55.951 15
      vertex 76.5096 55.9025 15
    endloop
  endfacet
  facet normal 0 -0 1
    outer loop
      vertex 76.5024 55.951 15
      vertex 76.5024 56.049 15
      vertex 76.5 56 15
    endloop
  endfacet
  facet normal 1 -0 0
    outer loop
      vertex 127.75 0 15
      vertex 127.75 85.5 0
      vertex 127.75 85.5 15
    endloop
  endfacet
  facet normal 1 0 0
    outer loop
      vertex 127.75 85.5 0
      vertex 127.75 0 15
      vertex 127.75 0 0
    endloop
  endfacet
  facet normal 0 1 -0
    outer loop
      vertex 127.75 85.5 0
      vertex 0 85.5 15
      vertex 127.75 85.5 15
    endloop
  endfacet
  facet normal 0 1 0
    outer loop
      vertex 0 85.5 15
      vertex 127.75 85.5 0
      vertex 0 85.5 0
    endloop
  endfacet
  facet normal 0 0 -1
    outer loop
      vertex 0 0 0
      vertex 127.75 85.5 0
      vertex 127.75 0 0
    endloop
  endfacet
  facet normal -0 0 -1
    outer loop
      vertex 127.75 85.5 0
      vertex 0 0 0
      vertex 0 85.5 0
    endloop
  endfacet
  facet normal 0 -1 0
    outer loop
      vertex 0 0 0
      vertex 127.75 0 15
      vertex 0 0 15
    endloop
  endfacet
  facet normal 0 -1 -0
    outer loop
      vertex 127.75 0 15
      vertex 0 0 0
      vertex 127.75 0 0
    endloop
  endfacet
  facet normal 1 -0 0
    outer loop
      vertex 54 33 15
      vertex 54 53 10.25
      vertex 54 53 15
    endloop
  endfacet
  facet normal 1 0 0
    outer loop
      vertex 54 53 10.25
      vertex 54 33 15
      vertex 54 33 10.25
    endloop
  endfacet
  facet normal -1 0 0
    outer loop
      vertex 74 33 10.25
      vertex 74 53 15
      vertex 74 53 10.25
    endloop
  endfacet
  facet normal -1 -0 0
    outer loop
      vertex 74 53 15
      vertex 74 33 10.25
      vertex 74 33 15
    endloop
  endfacet
  facet normal -0 0 1
    outer loop
      vertex 54 53 10.25
      vertex 74 33 10.25
      vertex 74 53 10.25
    endloop
  endfacet
  facet normal 0 0 1
    outer loop
      vertex 74 33 10.25
      vertex 54 53 10.25
      vertex 54 33 10.25
    endloop
  endfacet
  facet normal 0 1 -0
    outer loop
      vertex 74 33 10.25
      vertex 54 33 15
      vertex 74 33 15
    endloop
  endfacet
  facet normal 0 1 0
    outer loop
      vertex 54 33 15
      vertex 74 33 10.25
      vertex 54 33 10.25
    endloop
  endfacet
  facet normal 0 -1 0
    outer loop
      vertex 54 53 10.25
      vertex 74 53 15
      vertex 54 53 15
    endloop
  endfacet
  facet normal 0 -1 -0
    outer loop
      vertex 74 53 15
      vertex 54 53 10.25
      vertex 74 53 10.25
    endloop
  endfacet
endsolid OpenSCAD_Model
