solid OpenSCAD_Model
  facet normal -0 0 1
    outer loop
      vertex 0 78.2 17.55
      vertex 114.2 0 17.55
      vertex 114.2 78.2 17.55
    endloop
  endfacet
  facet normal 0 0 1
    outer loop
      vertex 114.2 0 17.55
      vertex 0 78.2 17.55
      vertex 0 0 17.55
    endloop
  endfacet
  facet normal 0 0 -1
    outer loop
      vertex 0 0 0
      vertex 114.2 78.2 0
      vertex 114.2 0 0
    endloop
  endfacet
  facet normal -0 0 -1
    outer loop
      vertex 114.2 78.2 0
      vertex 0 0 0
      vertex 0 78.2 0
    endloop
  endfacet
  facet normal 0 -1 0
    outer loop
      vertex 0 0 0
      vertex 114.2 0 17.55
      vertex 0 0 17.55
    endloop
  endfacet
  facet normal 0 -1 -0
    outer loop
      vertex 114.2 0 17.55
      vertex 0 0 0
      vertex 114.2 0 0
    endloop
  endfacet
  facet normal 1 -0 0
    outer loop
      vertex 114.2 0 17.55
      vertex 114.2 78.2 0
      vertex 114.2 78.2 17.55
    endloop
  endfacet
  facet normal 1 0 0
    outer loop
      vertex 114.2 78.2 0
      vertex 114.2 0 17.55
      vertex 114.2 0 0
    endloop
  endfacet
  facet normal 0 1 -0
    outer loop
      vertex 114.2 78.2 0
      vertex 0 78.2 17.55
      vertex 114.2 78.2 17.55
    endloop
  endfacet
  facet normal 0 1 0
    outer loop
      vertex 0 78.2 17.55
      vertex 114.2 78.2 0
      vertex 0 78.2 0
    endloop
  endfacet
  facet normal -1 0 0
    outer loop
      vertex 0 0 0
      vertex 0 78.2 17.55
      vertex 0 78.2 0
    endloop
  endfacet
  facet normal -1 -0 0
    outer loop
      vertex 0 78.2 17.55
      vertex 0 0 0
      vertex 0 0 17.55
    endloop
  endfacet
endsolid OpenSCAD_Model
