solid OpenSCAD_Model
  facet normal -0 0 1
    outer loop
      vertex 0 93 132
      vertex 156.5 0 132
      vertex 156.5 93 132
    endloop
  endfacet
  facet normal 0 0 1
    outer loop
      vertex 156.5 0 132
      vertex 0 93 132
      vertex 0 0 132
    endloop
  endfacet
  facet normal 0 0 -1
    outer loop
      vertex 0 0 0
      vertex 156.5 93 0
      vertex 156.5 0 0
    endloop
  endfacet
  facet normal -0 0 -1
    outer loop
      vertex 156.5 93 0
      vertex 0 0 0
      vertex 0 93 0
    endloop
  endfacet
  facet normal 0 -1 0
    outer loop
      vertex 0 0 0
      vertex 156.5 0 132
      vertex 0 0 132
    endloop
  endfacet
  facet normal 0 -1 -0
    outer loop
      vertex 156.5 0 132
      vertex 0 0 0
      vertex 156.5 0 0
    endloop
  endfacet
  facet normal 1 -0 0
    outer loop
      vertex 156.5 0 132
      vertex 156.5 93 0
      vertex 156.5 93 132
    endloop
  endfacet
  facet normal 1 0 0
    outer loop
      vertex 156.5 93 0
      vertex 156.5 0 132
      vertex 156.5 0 0
    endloop
  endfacet
  facet normal 0 1 -0
    outer loop
      vertex 156.5 93 0
      vertex 0 93 132
      vertex 156.5 93 132
    endloop
  endfacet
  facet normal 0 1 0
    outer loop
      vertex 0 93 132
      vertex 156.5 93 0
      vertex 0 93 0
    endloop
  endfacet
  facet normal -1 0 0
    outer loop
      vertex 0 0 0
      vertex 0 93 132
      vertex 0 93 0
    endloop
  endfacet
  facet normal -1 -0 0
    outer loop
      vertex 0 93 132
      vertex 0 0 0
      vertex 0 0 132
    endloop
  endfacet
endsolid OpenSCAD_Model
